<?xml version="1.0" encoding="UTF-8"?> <svg xmlns="http://www.w3.org/2000/svg" width="135" height="96" viewBox="0 0 135 96" fill="none"><mask id="mask0_4227_1054" style="mask-type:luminance" maskUnits="userSpaceOnUse" x="0" y="0" width="135" height="96"><path d="M0 0H135V95.8698H0V0Z" fill="white"></path></mask><g mask="url(#mask0_4227_1054)"><path d="M84.6198 1.92709C84.0521 1.92709 83.4532 2.06251 82.7657 2.22397L82.448 2.29689C79.724 2.91668 77.0261 3.85939 74.2761 4.85418C72.0521 5.65626 69.1927 6.81251 66.7813 8.67709C66.6355 8.79168 66.5052 8.95314 66.4323 9.10939C66.4011 9.18751 66.3959 9.2396 66.4167 9.27084C66.5052 9.37501 67.0261 9.65626 70.1927 8.9323L70.3594 8.89584C75.0521 7.89584 79.5417 6.11459 83.3386 3.73959C84.625 2.93751 85.2552 2.27605 85.2136 2.03647C85.2084 2.01564 85.2032 2.00001 85.198 1.97918C85.0105 1.94272 84.8177 1.92709 84.6198 1.92709ZM42.0521 13.1406C42.0469 13.1615 42.0469 13.1771 42.0417 13.1979C42.0261 13.4375 42.724 14.0313 44.0886 14.6875C48.125 16.6302 52.7813 17.9115 57.5573 18.3854L57.7292 18.4063C60.9532 18.7761 61.4427 18.4375 61.5157 18.3229C61.5365 18.2917 61.5209 18.2396 61.4792 18.1667C61.3907 18.0208 61.2448 17.875 61.0886 17.7761C58.4844 16.1875 55.5209 15.3542 53.224 14.7969C50.3802 14.1146 47.5938 13.474 44.823 13.1563L44.4948 13.1146C43.5521 13.0052 42.7709 12.9115 42.0521 13.1406ZM87.4844 21.7708C85.099 21.7708 82.5052 22.0261 78.2865 22.7604C76.1927 23.125 68.1719 25.2396 68.3802 26.8229C68.4584 27.3906 70.5521 28.1458 73.0521 28.5156C78.2917 29.2865 83.698 28.8646 89.573 27.2136C93.0573 26.2396 95.6094 24.474 96.2709 23.2083C95.1355 22.599 93.0469 22.0886 90.8282 21.9167C89.6615 21.8281 88.599 21.7708 87.4844 21.7708ZM33.3802 35.4271C35.0834 37.6979 38.349 38.6771 41.3386 39.3386C45.3907 40.2292 49.5365 40.4948 53.6667 40.125L53.8802 40.1094C58.9584 39.6823 60.4844 38.9844 60.8698 38.4688C60.9584 38.349 60.9896 38.2344 60.9636 38.1094C60.5938 36.2552 50.349 34.4219 44.8959 34.0417C42.4792 33.8698 35.7969 33.8281 33.3802 35.4271ZM83.8282 1.45834C80.5469 1.45834 72.6771 4.45314 71.3386 5.07293C69.0834 6.11459 65.3021 7.85418 65.1459 9.20834C65.0677 9.90105 65.198 11.849 65.2709 12.4948C66.0677 19.5573 67.4167 26.3386 68.7084 29.7813C68.8542 30.1667 69.0105 30.6042 69.1719 31.0625C69.7709 32.7396 70.5105 34.8229 71.198 35.6094C73.4115 38.1302 77.6302 40.0886 78.8698 40.625C80.9896 41.5521 82.9063 42.0156 84.9323 42.5052C85.6302 42.6771 86.349 42.849 87.1094 43.0469C88.3386 42.5938 89.4063 42.2188 90.3698 41.9219C90.3803 41.8594 90.3959 41.8333 90.4167 41.8125C94.1042 36.9479 97.8073 31.1146 97.3021 24.7344C97.2657 24.2865 97.1667 23.974 96.9896 23.75C96.8959 23.6354 96.7709 23.5261 96.6094 23.4115C95.8021 24.9323 92.9428 26.6771 89.6823 27.5938C83.75 29.2604 78.2917 29.6875 72.9948 28.9063C72.7969 28.8802 68.1667 28.1823 67.9896 26.875C67.6875 24.5729 78.1094 22.3906 78.2188 22.3698C84.4115 21.2969 87.2292 21.2448 90.8594 21.5208C92.8438 21.6771 95.099 22.1511 96.4115 22.8386C96.5365 22.3021 96.3334 21.7136 96.1407 21.1354L96.0938 20.9948C93.9792 14.6927 91.599 10.2708 88.2032 4.76043C87.2136 3.16668 86.4115 2.40626 85.6042 2.09897C85.5469 2.70314 84.474 3.50001 83.5469 4.07814C79.7136 6.47397 75.1771 8.27605 70.4427 9.28126L70.2761 9.31772C67.7552 9.89584 66.4688 9.95834 66.1146 9.52084C66.0261 9.41147 65.948 9.22918 66.0782 8.94793C66.1771 8.73439 66.3438 8.52084 66.5417 8.36459C69 6.46876 71.8907 5.29168 74.1407 4.48439C76.9063 3.48439 79.6198 2.53647 82.3594 1.91147L82.6771 1.83855C83.3594 1.6823 83.9792 1.53647 84.5782 1.53126C84.3698 1.48439 84.1146 1.45834 83.8282 1.45834ZM87.448 43.3438C87.5261 43.4844 87.6303 43.7083 87.7813 44.0521C88.8282 43.4688 89.8334 43.6146 90.8646 43.9271C90.6094 43.1042 90.4792 42.6146 90.4167 42.3177C89.5313 42.5938 88.5573 42.9323 87.448 43.3438ZM92.0365 46.2344C92.5782 46.2656 93.125 46.2865 93.6667 46.2656C93.9428 46.2552 94.2188 46.224 94.4844 46.1875C94.5678 46.1771 94.6563 46.1667 94.7396 46.1563C93.7605 45.4948 92.7032 44.9636 91.5886 44.5833C91.5469 44.5677 91.5105 44.5521 91.4688 44.5417C91.6355 45.0521 91.8282 45.6198 92.0365 46.2344ZM87.9323 44.4219C88.125 44.8906 88.3698 45.5261 88.6875 46.3906C89.0625 46.2083 89.4688 46.0729 90.0417 46.1042C90.4271 46.1198 90.8073 46.1511 91.1928 46.1771C91.3334 46.1875 91.4688 46.1979 91.6094 46.2083C91.3646 45.4844 91.1667 44.8854 91.0053 44.3854C89.9323 44.0365 88.9532 43.8386 87.9323 44.4219ZM87.599 44.6406C87.5782 44.6511 87.5625 44.6667 87.5417 44.6823C87.1198 45.0052 86.8907 45.4323 86.8594 45.9479C86.8386 46.3229 86.9219 46.7448 87.0938 47.1563C87.25 47.1042 87.3907 47.0521 87.5209 46.9948C87.8021 46.8802 88.0365 46.7448 88.2605 46.6198C88.2865 46.6042 88.3125 46.5938 88.3386 46.5781C88.0521 45.8073 87.8073 45.1511 87.599 44.6406ZM102.135 46.5886C102.13 46.5886 102.13 46.5886 102.125 46.5886C101.938 46.6042 101.63 46.974 101.563 47.1719C101.542 47.2396 101.526 47.3021 101.516 47.3646C101.792 47.25 102.146 47.0469 102.234 46.8438C102.26 46.7865 102.26 46.7396 102.234 46.6875C102.193 46.599 102.156 46.5886 102.135 46.5886ZM87.0834 43.4792C86.823 43.5729 86.5573 43.6771 86.2865 43.7813C86.1667 43.8229 86.0261 43.875 85.8698 43.9323C84.875 44.2917 83.2136 44.8906 82.8438 45.6406C82.7188 45.8906 82.724 46.1563 82.8646 46.4323C83.1511 46.974 83.8802 47.3958 84.3855 47.474C85.1146 47.5833 85.9844 47.4688 86.7188 47.2708C86.5313 46.8125 86.4428 46.3438 86.4688 45.9219C86.5053 45.2969 86.7969 44.7604 87.3021 44.3698C87.349 44.3333 87.4011 44.2969 87.448 44.2604C87.2865 43.8698 87.1615 43.599 87.0834 43.4792ZM87.2709 47.5156C87.4532 47.8386 87.6875 48.1511 87.9636 48.4271C88.3803 48.8438 88.875 49.1823 89.3855 49.4948C89.0573 48.5677 88.75 47.7136 88.474 46.9531C88.4688 46.9583 88.4636 46.9583 88.4532 46.9636C88.2292 47.0886 87.974 47.2344 87.6719 47.3594C87.5521 47.4115 87.4167 47.4636 87.2709 47.5156ZM89.9115 49.7969C90.0782 49.8854 90.2396 49.9792 90.4063 50.0677C90.5521 50.1458 90.7032 50.224 90.849 50.3073C91.8178 50.8438 92.7553 51.4271 93.6459 52.0573C92.8282 49.7604 92.2136 47.9844 91.7448 46.6146C91.5521 46.599 91.3594 46.5833 91.1667 46.5729C90.7813 46.5417 90.4011 46.5156 90.0209 46.4948C89.5209 46.474 89.1719 46.5886 88.823 46.7604C89.125 47.5781 89.4792 48.5729 89.9115 49.7969ZM95.9271 46.5469C96.5 47.0104 97.0209 47.5156 97.5261 48.0104C98.3073 48.7656 99.1146 49.5469 100.094 50.1615C101.537 51.0625 103.042 51.9167 104.557 52.6979C105.172 53.0104 105.641 53.2188 106.234 53.3594C106.297 53.375 106.359 53.3906 106.427 53.4011C106.453 53.0417 106.542 52.3438 106.839 51.8073C105.547 51.8854 103.995 51.1719 102.896 50.4115C102.031 49.8125 101.208 48.8906 101.104 47.8906C99.6355 48.1406 97.7865 47.474 96.5938 46.7917C96.375 46.6667 96.1511 46.5886 95.9271 46.5469ZM41.2657 53.4115C42.2657 53.599 43.3646 53.8542 44.6355 54.1719C45.3646 53.8906 46.0625 53.6406 46.7396 53.3906C48.698 52.6823 50.5521 52.0104 52.5625 50.8594C53.7344 50.1875 57.7084 47.7813 59.6407 45.0313C60.2396 44.1771 60.7448 42.0208 61.1511 40.2917C61.2657 39.8177 61.3698 39.3646 61.474 38.9636C62.3802 35.4063 62.9844 28.5104 63.0052 21.4063C63.0052 20.7552 62.9271 18.8021 62.7709 18.125C62.4688 16.7969 58.5209 15.4792 56.1615 14.6927C54.6459 14.1875 45.1407 11.7292 42.6198 12.625C43.2188 12.5677 43.849 12.6406 44.5417 12.724L44.8646 12.7656C47.6615 13.0833 50.4584 13.7292 53.3177 14.4167C55.6407 14.974 58.6459 15.8229 61.2917 17.4427C61.5052 17.5729 61.698 17.7656 61.8177 17.9688C61.974 18.2292 61.9167 18.4219 61.8438 18.5417C61.5365 19.0156 60.2552 19.0938 57.6823 18.7969L57.5157 18.7813C52.698 18.2969 47.9948 17.0052 43.9219 15.0417C42.9375 14.5677 41.7813 13.8958 41.6615 13.3021C40.8907 13.6927 40.1771 14.5417 39.3698 16.2344C36.5938 22.0833 34.7136 26.7396 33.2969 33.2344C33.2761 33.349 33.2448 33.4636 33.2188 33.5781C33.0834 34.1198 32.948 34.6823 33.1563 35.099C36.2136 33.0625 44.8282 33.6406 44.9219 33.6458C48.4011 33.8906 60.8542 35.5365 61.349 38.0313C61.3959 38.2708 61.3438 38.4948 61.1875 38.7031C60.5417 39.5573 58.1615 40.1458 53.9115 40.5L53.698 40.5208C49.5313 40.8906 45.3438 40.6198 41.2552 39.724C38.1927 39.0469 34.8438 38.0365 33.0677 35.6667C32.9219 35.7917 32.8021 35.9271 32.7084 36.0729C32.5573 36.3177 32.4896 36.6406 32.5 37.0833C32.698 43.4792 37.0157 48.875 41.2136 53.3021C41.2344 53.3281 41.2552 53.349 41.2657 53.4115ZM106.839 53.9063C106.88 54.125 106.984 54.3646 107.24 54.4844C107.323 54.5208 107.412 54.4948 107.453 54.4427C107.495 54.4011 107.495 54.3542 107.458 54.2917C107.349 54.099 107.104 53.9844 106.839 53.9063ZM41.2657 53.8073C41.2396 54.1146 41.1615 54.6146 41 55.4583C41.9896 55.0365 42.974 54.7813 44.0782 55.2448C44.1875 54.8854 44.2657 54.6511 44.3282 54.5052C43.1771 54.2136 42.1771 53.9844 41.2657 53.8073ZM90.1042 50.3542C90.4688 51.3906 90.8803 52.5729 91.349 53.9323C91.7396 55.0625 92.125 56.1979 92.4948 57.2865C93.2813 56.7136 94.1094 56.1927 94.9636 55.7344C94.6094 54.75 94.2396 53.724 93.8803 52.7083C92.8594 51.9636 91.7813 51.2761 90.6563 50.6511C90.5105 50.5729 90.3646 50.4948 90.2188 50.4115C90.1823 50.3958 90.1459 50.375 90.1042 50.3542ZM40.9011 55.9271C40.8021 56.4427 40.6667 57.0625 40.5052 57.8073C40.6459 57.7813 40.7813 57.7552 40.9167 57.7292C41.2969 57.6615 41.6719 57.5886 42.0521 57.5313C42.6146 57.4375 43.0365 57.5261 43.4271 57.6667C43.6511 56.7761 43.8282 56.1146 43.9636 55.625C42.8907 55.1563 41.9323 55.4636 40.9011 55.9271ZM37.3855 58.099C37.474 58.099 37.5573 58.1042 37.6459 58.1042C37.9115 58.1042 38.1927 58.1094 38.4636 58.0886C39.0052 58.0521 39.5469 57.974 40.0834 57.8802C40.224 57.25 40.349 56.6615 40.4584 56.1354C40.4219 56.1511 40.3855 56.1667 40.349 56.1875C39.2813 56.6927 38.2865 57.3333 37.3855 58.099ZM95.4532 55.9219C95.7396 56.7136 96.0105 57.4688 96.2605 58.1563C96.849 57.8177 97.4532 57.4948 98.073 57.2083L96.7761 55.7292C96.6771 55.6198 96.599 55.5313 96.5053 55.5052C96.3855 55.474 96.2344 55.5365 96.0886 55.6094C95.875 55.7083 95.6615 55.8125 95.4532 55.9219ZM43.7969 57.8125C43.823 57.8281 43.849 57.8386 43.875 57.849C44.1146 57.9479 44.3646 58.0573 44.6563 58.1406C44.7917 58.1823 44.9375 58.2188 45.0938 58.2552C45.224 57.8229 45.2605 57.3958 45.198 57.0261C45.1094 56.5156 44.8334 56.1198 44.3802 55.8438C44.3594 55.8333 44.3386 55.8177 44.3177 55.8073C44.1719 56.3386 43.9948 57.0208 43.7969 57.8125ZM45.4792 58.3229C46.2344 58.4427 47.1094 58.4636 47.823 58.2708C48.323 58.1406 48.9948 57.6406 49.2188 57.0677C49.3282 56.7813 49.3073 56.5156 49.1563 56.2813C48.7032 55.5781 46.9896 55.1615 45.9636 54.9167C45.8021 54.875 45.6563 54.8386 45.5313 54.8073C45.25 54.7344 44.974 54.6667 44.7084 54.5938C44.6407 54.7292 44.5469 55.0104 44.4323 55.4167C44.4792 55.4427 44.5313 55.474 44.5886 55.5052C45.1302 55.8386 45.4792 56.3386 45.5834 56.9583C45.6563 57.375 45.6198 57.849 45.4792 58.3229ZM92.625 57.6771C92.8855 58.4375 93.1355 59.1719 93.3646 59.8594C93.5417 59.7552 93.7084 59.6615 93.875 59.5625C94.2396 59.3542 94.599 59.1354 94.9584 58.9219C95.2761 58.7344 95.5938 58.5417 95.9167 58.3542C95.6615 57.6615 95.3855 56.9011 95.099 56.1094C94.2448 56.5729 93.4167 57.099 92.625 57.6771ZM30.099 59.3386C30.0938 59.3386 30.0938 59.3386 30.0938 59.3386C30.073 59.3438 30.0313 59.3438 29.9948 59.4479C29.974 59.5052 29.9792 59.5521 30.0157 59.6042C30.125 59.7969 30.4948 59.9636 30.7865 60.0469C30.7657 59.9844 30.7448 59.9167 30.7136 59.8594C30.6302 59.6667 30.2865 59.3386 30.099 59.3386ZM43.7032 58.2031C43.5105 58.9896 43.2969 59.8698 43.073 60.8281C43.5521 60.4636 44 60.0729 44.3698 59.6146C44.6146 59.3073 44.8177 58.974 44.9584 58.625C44.8125 58.5938 44.6719 58.5573 44.5469 58.5208C44.2292 58.4271 43.9636 58.3125 43.724 58.2136C43.7136 58.2083 43.7084 58.2083 43.7032 58.2031ZM93.4948 60.2396C93.8698 61.3542 94.1928 62.3229 94.4428 63.0625C95.4792 62.8594 96.5105 62.4323 97.198 61.8542C97.0469 61.4479 96.6146 60.2813 96.0521 58.7292C95.7553 58.9063 95.4532 59.0833 95.1615 59.2604C94.8021 59.4792 94.4375 59.6927 94.073 59.9063C93.8855 60.0104 93.6928 60.125 93.4948 60.2396ZM100.568 62.7865C101.162 62.7865 101.964 62.8438 102.766 63.0833C102.323 62.3333 101.875 61.5833 101.406 60.849C100.766 61.2656 100.229 61.8333 99.8438 62.5C99.7865 62.6042 99.7292 62.7083 99.6719 62.8177C99.9532 62.7969 100.229 62.7917 100.505 62.7865C100.526 62.7865 100.547 62.7865 100.568 62.7865ZM93.1459 60.4271C92.7344 60.6458 92.3021 60.8594 91.8594 61.0417L91.7761 61.0781C91.3959 61.2344 90.7553 61.4948 90.7657 61.9011C90.7761 62.3333 91.3282 62.8229 91.7032 62.9688C92.3334 63.2136 93.1823 63.25 94.0469 63.1302C93.7553 62.2552 93.4532 61.349 93.1459 60.4271ZM40.4115 58.224C40.099 59.6406 39.6771 61.4688 39.1198 63.8438C39.9375 63.125 40.8073 62.4375 41.7084 61.7969C41.8438 61.7031 41.9844 61.6042 42.1198 61.5104C42.2761 61.4011 42.4323 61.2969 42.5834 61.1875C42.8802 59.9271 43.125 58.8958 43.3334 58.0521C42.9688 57.9167 42.6094 57.8386 42.1146 57.9167C41.7396 57.9792 41.3646 58.0469 40.9896 58.1198C40.7969 58.1563 40.6042 58.1875 40.4115 58.224ZM98.9532 63.2708C98.7709 63.2969 98.5938 63.3177 98.4115 63.3438C98.1355 63.3854 97.849 63.5417 97.7709 63.6875C97.75 63.7344 97.7448 63.7761 97.7709 63.8281C97.8334 63.9479 98.0469 63.9636 98.2136 63.9115C98.5261 63.8073 98.7553 63.5677 98.9532 63.2708ZM103.698 63.9011C103.922 64.2969 104.146 64.6875 104.37 65.0781C104.651 65.5729 104.938 66.0729 105.229 66.5781C105.302 66.0156 105.177 65.4844 104.865 64.9948C104.557 64.5208 104.146 64.1615 103.698 63.9011ZM25.9792 65.0417C26.3334 65.5417 26.4948 66.2292 26.5573 66.5833C26.625 66.5625 26.6875 66.5417 26.7448 66.5208C27.323 66.3177 27.7657 66.0573 28.3438 65.6771C29.7657 64.7344 31.1667 63.724 32.5052 62.6667C33.4063 61.9531 34.125 61.0833 34.8177 60.2448C35.2709 59.7031 35.7292 59.1458 36.25 58.6198C36.0313 58.6823 35.8177 58.7813 35.6146 58.9323C34.5052 59.7448 32.7396 60.6094 31.2552 60.5208C31.2552 61.5261 30.5417 62.5313 29.7448 63.224C28.7344 64.099 27.2761 64.9792 25.9792 65.0417ZM26.2084 67.1302C25.9532 67.2396 25.7188 67.375 25.6302 67.5833C25.6042 67.6458 25.6094 67.6979 25.6563 67.7344C25.7032 67.7761 25.7969 67.7969 25.875 67.7448C26.1094 67.6042 26.1875 67.349 26.2084 67.1302ZM38.2084 67.6458C39.1094 68.0052 39.9896 68.4323 40.8334 68.9115C41.0834 67.7969 41.3438 66.625 41.6094 65.4531C41.9219 64.0573 42.2032 62.8333 42.4532 61.7604C42.4167 61.7865 42.3802 61.8125 42.3438 61.8333C42.2084 61.9271 42.073 62.0261 41.9375 62.1198C40.8855 62.8646 39.8907 63.6667 38.9584 64.5156C38.7084 65.5677 38.4532 66.625 38.2084 67.6458ZM35.2813 69.4479C35.9271 69.6667 36.5625 69.9219 37.1875 70.1927C37.3594 69.4792 37.5469 68.7031 37.7448 67.8854C37.5209 67.8021 37.3021 67.7188 37.0782 67.6406C36.9271 67.5886 36.7657 67.5417 36.6511 67.5886C36.5625 67.6198 36.4948 67.7188 36.4063 67.8386L35.2813 69.4479ZM120.781 67.2136C120.896 67.2136 121.005 67.2136 121.115 67.2188C122.776 67.2813 124.849 67.9896 127.042 68.7396C129.396 69.5417 131.818 70.3646 133.74 70.375C133.255 70.1927 132.641 69.9323 132.078 69.6302C128.151 67.6354 124.094 65.2136 121.021 61.0313C120.354 60.1146 119.828 59.0521 119.323 58.0156L119.151 57.6719C118.365 56.0677 117.662 54.375 116.984 52.7396C115.76 49.7917 114.5 46.7396 112.667 44.1042C112.24 43.4948 111.771 42.8646 111.109 42.5052C110.401 42.1146 109.135 41.8333 108.339 41.8854C106.214 42.0208 102.646 41.6771 100.516 41.474C99.8334 41.4063 99.2969 41.3542 99.0105 41.3386C95.7917 41.1615 93.7761 41.3073 90.7813 42.2031C90.849 42.5417 91.0417 43.1979 91.323 44.0729C91.4532 44.1146 91.5834 44.1615 91.7188 44.2083C93.0209 44.6563 94.2448 45.2969 95.3646 46.1094C95.8282 46.1042 96.3073 46.1719 96.7865 46.4479C97.9428 47.1094 99.7292 47.7552 101.099 47.4896C101.109 47.3438 101.141 47.1927 101.193 47.0469C101.281 46.7708 101.682 46.224 102.099 46.1927C102.219 46.1875 102.443 46.2188 102.589 46.5156C102.667 46.6719 102.667 46.8438 102.594 47.0052C102.412 47.4167 101.792 47.6979 101.49 47.7969C101.568 48.6927 102.354 49.5521 103.12 50.0886C104.24 50.8594 105.984 51.6563 107.234 51.349C107.318 51.3281 107.412 51.3698 107.453 51.4479C107.495 51.5261 107.479 51.625 107.417 51.6875C106.938 52.1406 106.839 53.1615 106.818 53.4896C107.203 53.5886 107.604 53.75 107.802 54.0938C107.922 54.3073 107.901 54.5417 107.745 54.7136C107.578 54.8958 107.302 54.9479 107.073 54.8438C106.698 54.6667 106.469 54.2969 106.427 53.8073C106.406 53.8021 106.385 53.7969 106.365 53.7917C106.287 53.7761 106.214 53.7604 106.146 53.7448C105.516 53.5938 105 53.3698 104.38 53.0469C102.854 52.2656 101.339 51.4063 99.8855 50.4948C98.875 49.8646 98.0521 49.0625 97.2553 48.2917C96.6875 47.7448 96.1042 47.1771 95.4636 46.6771C95.3855 46.6198 95.3125 46.5677 95.2396 46.5104C95.0053 46.5208 94.7709 46.5521 94.5313 46.5781C94.2605 46.6146 93.974 46.6511 93.6823 46.6615C93.1771 46.6771 92.6719 46.6667 92.1719 46.6354C92.7657 48.3854 93.4896 50.4375 94.2084 52.4636C96.7396 54.3229 98.9219 56.5313 100.63 58.974C100.938 59.4167 101.24 59.8646 101.531 60.3125C102.234 59.9323 102.865 59.8229 103.458 59.9896C104.635 60.3125 105.365 61.6146 106.068 62.875C106.396 63.4583 106.708 64.0104 107.042 64.4219C108.896 66.6979 111.776 68.0729 114.568 68C115.557 67.9792 116.563 67.7917 117.531 67.6094C118.589 67.4167 119.682 67.2136 120.781 67.2136ZM37.5521 70.3542C37.8907 70.5052 38.2292 70.6563 38.5625 70.8125C38.9427 70.9896 39.3282 71.1615 39.7136 71.3333C39.8855 71.4063 40.0625 71.4896 40.25 71.5677C40.4063 70.8594 40.573 70.1042 40.7448 69.3177C39.9011 68.8281 39.0157 68.3958 38.1146 68.0313C37.9167 68.849 37.724 69.6354 37.5521 70.3542ZM94.5678 63.4427C94.7969 64.1302 94.9323 64.5365 94.9375 64.5521C94.9688 64.6458 94.9219 64.7552 94.8282 64.7969C94.7761 64.8177 89.5938 67.1146 88.5782 69.9479C88.323 70.6719 88.3646 71.375 88.7032 72.0417C90.4011 75.3906 98.0157 72.5365 100.807 71.1563C102.958 70.0938 104.615 68.5313 105.099 67.1354C104.734 66.5104 104.38 65.8854 104.031 65.2761C103.714 64.7188 103.391 64.1615 103.068 63.599C102.156 63.25 101.182 63.1771 100.51 63.1823C100.156 63.1823 99.8021 63.1979 99.448 63.2292C99.1823 63.6823 98.8594 64.1146 98.3386 64.2865C98.0053 64.3958 97.5834 64.3333 97.4219 64C97.3386 63.8386 97.3386 63.6667 97.4219 63.5052C97.5834 63.1979 98.0157 63.0052 98.3542 62.9531C98.6355 62.9115 98.9219 62.875 99.2032 62.849C99.2396 62.7865 99.2761 62.724 99.3073 62.6615C99.375 62.5365 99.4375 62.4167 99.5053 62.3021C99.9167 61.5833 100.5 60.9688 101.193 60.5156C100.906 60.0729 100.609 59.6354 100.307 59.2031C98.7292 56.9479 96.7448 54.8958 94.4532 53.1354C94.7448 53.9583 95.0365 54.7708 95.3178 55.5469C95.5157 55.4479 95.7188 55.349 95.9219 55.25C96.125 55.1511 96.3646 55.0573 96.6146 55.125C96.823 55.1875 96.9688 55.349 97.073 55.4688L98.5469 57.1458C98.5886 57.1927 98.6042 57.2604 98.5886 57.3229C98.5782 57.3802 98.5365 57.4323 98.4792 57.4583C97.7657 57.7708 97.073 58.1406 96.3959 58.5313C97.0365 60.2865 97.5 61.5469 97.6094 61.8438C97.6407 61.9167 97.6198 62.0052 97.5625 62.0573C96.8282 62.724 95.7084 63.2136 94.5678 63.4427ZM36.6563 73.974C37.4063 74.4688 38.474 74.7813 39.5313 74.8698C39.6927 74.1094 39.9115 73.1094 40.1667 71.9583C39.9532 71.8698 39.75 71.7813 39.5521 71.6927C39.1667 71.5208 38.7813 71.3438 38.4011 71.1719C38.0886 71.0261 37.7709 70.8854 37.4532 70.7396C37.0625 72.3438 36.7657 73.5521 36.6563 73.974ZM39.9271 74.8958C40.8073 74.9219 41.6407 74.7865 42.2396 74.474C42.599 74.2865 43.0938 73.7448 43.0573 73.3125C43.0209 72.9063 42.3594 72.7188 41.9636 72.6042L41.875 72.5833C41.4167 72.4479 40.9636 72.2813 40.5313 72.1094C40.323 73.0625 40.1198 73.9948 39.9271 74.8958ZM32.3646 73.4323C31.9792 74.2188 31.6146 75.0104 31.2605 75.8021C32.0521 75.4688 32.875 75.3229 33.4688 75.2604C33.7448 75.2344 34.0261 75.2136 34.3021 75.1979C34.2344 75.099 34.1667 75 34.099 74.9063C33.6459 74.2865 33.0469 73.7813 32.3646 73.4323ZM35.0677 75.5781C35.2969 75.8438 35.5521 76.0573 35.8698 76.125C36.0417 76.1615 36.2552 76.125 36.3021 75.9948C36.323 75.9427 36.3177 75.9011 36.2865 75.8594C36.1927 75.7188 35.8907 75.599 35.6146 75.5886C35.4323 75.5781 35.25 75.5781 35.0677 75.5781ZM30.4219 76.7188C30 77.0313 29.6355 77.4271 29.3802 77.9375C29.1198 78.4583 29.0573 79 29.1875 79.5469C29.4219 79.0156 29.6511 78.4844 29.8802 77.9636C30.0573 77.5521 30.2396 77.1354 30.4219 76.7188ZM29.3802 80.0886C30.0157 81.4271 31.8282 82.7917 34.0834 83.6146C37.0105 84.6823 44.8907 86.6823 46.2136 83.1667C46.4792 82.4688 46.4427 81.7604 46.1042 81.0729C44.7917 78.3698 39.3855 76.6511 39.3334 76.6354C39.2344 76.6042 39.1771 76.5052 39.198 76.4063C39.2032 76.3906 39.2917 75.974 39.448 75.2604C38.2865 75.1563 37.1198 74.7969 36.3177 74.2136C36.2552 74.1667 36.224 74.0833 36.2448 74.0052C36.323 73.7031 36.6459 72.3958 37.0886 70.5781C36.375 70.2708 35.6511 69.974 34.9063 69.7448C34.849 69.724 34.7969 69.6771 34.7761 69.6198C34.7605 69.5573 34.7657 69.4948 34.8021 69.4427L36.0834 67.6094C36.1771 67.4792 36.3021 67.3021 36.5052 67.2188C36.7448 67.125 36.9896 67.1927 37.2084 67.2656C37.4167 67.3438 37.6302 67.4167 37.8386 67.5C38.0313 66.6927 38.2344 65.8542 38.4375 65.0052C36.349 67.0052 34.599 69.2604 33.2761 71.6771C33.0209 72.1406 32.7761 72.6094 32.5417 73.0833C33.2813 73.4531 33.9219 74 34.4167 74.6719C34.4948 74.7813 34.573 74.8906 34.6459 75.0052C34.6875 75.0625 34.7292 75.125 34.7709 75.1823C35.0573 75.1771 35.3438 75.1823 35.6302 75.1927C35.9688 75.2031 36.4219 75.349 36.6146 75.6406C36.7136 75.7865 36.7344 75.9583 36.6719 76.1302C36.5469 76.4792 36.1302 76.5833 35.7917 76.5156C35.2552 76.4011 34.8855 76.0052 34.573 75.5833C34.2188 75.5938 33.8646 75.6198 33.5105 75.6563C32.8438 75.724 31.8802 75.9011 31.0157 76.3542C30.75 76.9427 30.4948 77.5365 30.2396 78.1198C29.9584 78.7708 29.6719 79.4271 29.3802 80.0886ZM59.4375 82.3906C59.1198 82.3906 58.7709 82.6198 58.5052 83.0104C58.2396 83.4063 58.1875 83.8333 58.3438 84.2813C58.4688 84.6354 58.7188 84.9792 59.0365 85.2552C59.5417 84.6563 60.3386 83.6042 60.1355 83.0052C60.0105 82.6511 59.7969 82.4323 59.5209 82.3958C59.4948 82.3906 59.4688 82.3906 59.4375 82.3906ZM37 53.349C35.6407 53.349 34.2917 53.5 32.6146 53.7813C32.3334 53.8281 31.8073 53.9375 31.1355 54.0781C29.0417 54.5156 25.5313 55.2448 23.4011 55.3438C22.6094 55.3802 21.3802 55.8021 20.7188 56.2656C20.099 56.6979 19.7032 57.375 19.3438 58.0261C17.8125 60.849 16.8907 64.0156 15.9948 67.0833C15.5 68.7865 14.9896 70.5417 14.3802 72.224L14.2448 72.5886C13.8542 73.6667 13.4532 74.7865 12.8855 75.7656C10.2917 80.2656 6.52087 83.1198 2.83337 85.5313C2.30733 85.8958 1.7292 86.2136 1.26566 86.4531C3.17191 86.2344 5.48962 85.1458 7.73962 84.0938C9.84379 83.1042 11.8282 82.1771 13.4688 81.9271C14.6667 81.75 15.8907 81.8386 17.073 81.9271C18.0573 82 19.0782 82.0729 20.0625 81.9896C22.8438 81.7552 25.5573 80.0729 27.1563 77.6042C27.4427 77.1615 27.6875 76.5781 27.9532 75.9583C28.5157 74.6302 29.0938 73.2552 30.2292 72.8073C30.8021 72.5781 31.4427 72.6146 32.1823 72.9167C32.4219 72.4375 32.6719 71.9583 32.9323 71.4896C34.3646 68.8698 36.2917 66.4375 38.599 64.3073C39.099 62.2188 39.5886 60.099 39.9948 58.2969C39.5 58.3802 38.9948 58.4479 38.4948 58.4844C38.2032 58.5052 37.9167 58.5 37.6407 58.5C37.3959 58.4948 37.1615 58.4896 36.9323 58.5052C36.8646 58.5677 36.7969 58.6302 36.7292 58.6979C36.1407 59.2656 35.625 59.8906 35.125 60.4948C34.4167 61.3542 33.6823 62.2344 32.7448 62.974C31.4011 64.0417 29.9896 65.0573 28.5573 66.0052C27.974 66.3958 27.4896 66.6771 26.8802 66.8958C26.8125 66.9167 26.7396 66.9427 26.6667 66.9636C26.6459 66.974 26.625 66.9792 26.6094 66.9844C26.6198 67.4792 26.4323 67.8698 26.0782 68.0833C25.8594 68.2188 25.5782 68.1927 25.3959 68.0313C25.2188 67.8802 25.1719 67.6458 25.2709 67.4219C25.4271 67.0625 25.8125 66.8542 26.1823 66.7136C26.125 66.3906 25.9167 65.3854 25.3907 64.9844C25.323 64.9323 25.2969 64.8386 25.3282 64.7552C25.3646 64.6719 25.448 64.6198 25.5365 64.6354C26.8125 64.8021 28.4584 63.8177 29.4844 62.9271C30.1927 62.3125 30.8802 61.3698 30.8542 60.4688C30.5469 60.4011 29.9011 60.1927 29.6719 59.8073C29.5834 59.6511 29.5625 59.4792 29.625 59.3125C29.7396 59.0052 29.9532 58.9531 30.0782 58.9479C30.4948 58.9271 30.9532 59.4323 31.073 59.6927C31.1355 59.8333 31.1823 59.9792 31.2136 60.1198C32.6042 60.2396 34.3073 59.4011 35.3855 58.6146C35.8282 58.2865 36.2969 58.1667 36.7657 58.1198C37.7865 57.1875 38.9323 56.4167 40.1823 55.8281C40.3073 55.7708 40.4323 55.7083 40.5573 55.6511C40.7396 54.7552 40.8594 54.0833 40.8907 53.7396C39.4323 53.4688 38.2136 53.349 37 53.349ZM85.1407 89.2031C84.849 89.7083 84.599 90.2292 84.3959 90.7604C84.2032 91.2656 83.974 92.0104 84.25 92.6094C84.4271 92.9844 84.75 93.3906 85.2761 93.1563C86 92.8386 86.6146 91.5625 86.2553 90.6979C86.0261 90.1511 85.6407 89.6511 85.1407 89.2031ZM38.1823 95.1615C36.2761 95.1615 34.2917 95 32.2396 94.6823C25.1198 93.5625 18.5105 91.0886 18.4427 91.0625C18.375 91.0365 18.3282 90.9792 18.3177 90.9063C18.3073 90.8333 18.3334 90.7604 18.3959 90.7188C19.1355 90.1719 19.9115 89.6354 20.6615 89.1146C23.6302 87.0625 26.7032 84.9375 28.3021 81.5104C28.5209 81.0417 28.7396 80.5625 28.9532 80.0833C28.948 80.0781 28.9427 80.0677 28.9375 80.0573C28.6302 79.2761 28.6615 78.5 29.0313 77.7604C29.4167 76.9844 30.0313 76.4427 30.7084 76.0677C31.125 75.1354 31.5521 74.1979 32.0052 73.2708C31.375 73.0208 30.8438 72.9844 30.375 73.1719C29.3907 73.5625 28.8438 74.8594 28.3125 76.1146C28.0417 76.75 27.7917 77.3438 27.4844 77.8177C25.823 80.3854 22.9948 82.1354 20.0938 82.3802C19.0782 82.4688 18.0469 82.3906 17.0469 82.3177C15.8855 82.2344 14.6823 82.1458 13.5261 82.3177C11.9427 82.5573 9.98441 83.474 7.90629 84.4479C5.23441 85.7031 2.46879 87 0.317745 86.875C0.223994 86.8698 0.151079 86.8021 0.135453 86.7136C0.11462 86.625 0.166703 86.5365 0.250037 86.5C0.265661 86.4948 1.57295 85.9219 2.60941 85.2031C6.01566 82.974 9.86462 80.2136 12.5469 75.5677C13.0938 74.6198 13.4896 73.5156 13.875 72.4531L14.0105 72.0886C14.6146 70.4219 15.125 68.6667 15.6198 66.974C16.5157 63.8854 17.448 60.6979 19 57.8386C19.3646 57.1719 19.8073 56.4219 20.4948 55.9427C21.2136 55.4323 22.5105 54.9896 23.3855 54.9479C25.4792 54.8542 28.9688 54.125 31.0573 53.6927C31.7292 53.5521 32.2605 53.4427 32.5521 53.3906C35.6407 52.875 37.7084 52.7917 40.6667 53.3021C36.5 48.8698 32.3021 43.4948 32.1094 37.0938C32.099 36.7656 32.1146 36.2761 32.375 35.8646C32.4948 35.6719 32.6511 35.5 32.8386 35.3386C32.5157 34.7813 32.6875 34.0938 32.8386 33.4844C32.8646 33.3698 32.8907 33.2604 32.9115 33.1511C34.3334 26.6198 36.2292 21.9427 39.0157 16.0677C39.948 14.1042 40.8125 13.2083 41.7396 12.8386C41.8125 12.6875 41.9271 12.5573 42.0886 12.4479C44.4063 10.8906 56.1771 14.2813 56.2865 14.3177C59.724 15.4636 62.8334 16.6094 63.1563 18.0365C63.3177 18.7552 63.4011 20.724 63.3959 21.4063C63.375 28.5417 62.7709 35.474 61.8542 39.0625C61.7552 39.4583 61.6459 39.9115 61.5365 40.3802C61.099 42.2396 60.6042 44.3438 59.9636 45.2552C57.9844 48.0729 53.948 50.5208 52.7552 51.2031C50.7136 52.3698 48.849 53.0469 46.875 53.7656C46.3646 53.9479 45.8386 54.1406 45.3021 54.3438C45.4115 54.3698 45.5209 54.3958 45.6302 54.4271C45.75 54.4583 45.8959 54.4948 46.0573 54.5313C47.2084 54.8125 48.9532 55.2292 49.4896 56.0625C49.7084 56.4063 49.7448 56.8021 49.5886 57.2083C49.3177 57.9115 48.5261 58.4948 47.9219 58.6563C47.0938 58.875 46.1355 58.8333 45.349 58.7031C45.1927 59.1094 44.9636 59.5052 44.6771 59.8594C44.1823 60.474 43.5677 60.9636 42.9375 61.4219C42.3907 63.7396 41.7865 66.4271 41.1927 69.1198C41.323 69.1979 41.4636 69.2865 41.6094 69.3698C42.7605 70.0729 44.198 70.9427 45.2396 70.7396C45.75 70.6406 46.0782 70.4219 46.2084 70.0886C46.3959 69.625 46.2032 68.9011 45.7032 68.2031C45.0625 67.3125 44.5625 66.8542 43.8698 66.224C43.6771 66.0521 43.474 65.8646 43.25 65.6511C43.1719 65.5781 43.1667 65.4583 43.2344 65.3802C43.3021 65.3021 43.4219 65.2865 43.5052 65.3542C44.375 66.0521 44.5834 66.2136 45.1875 66.5833C45.9115 67.0208 46.9115 67.4583 47.5782 67.0365C47.9844 66.7761 48.1875 66.4583 48.198 66.0573C48.224 64.5261 45.4532 62.224 43.9792 61.2188C43.8907 61.1563 43.8646 61.0313 43.9271 60.9427C43.9896 60.8542 44.1146 60.8281 44.2032 60.8906C44.3802 61.0156 48.6302 63.9427 48.5886 66.0625C48.5782 66.599 48.3073 67.0417 47.7865 67.3698C47.1823 67.75 46.3698 67.6667 45.3542 67.1302C45.573 67.375 45.7865 67.6458 46.0209 67.974C46.6094 68.7917 46.8125 69.6406 46.573 70.2344C46.448 70.5573 46.125 70.9688 45.3125 71.1302C44.1198 71.3594 42.6146 70.4427 41.4063 69.7083C41.3021 69.6458 41.198 69.5833 41.099 69.5261C40.9375 70.2604 40.7761 70.9948 40.6146 71.7188C41.0573 71.8958 41.5157 72.0677 41.9844 72.2031L42.0677 72.224C42.5625 72.3646 43.3907 72.599 43.448 73.2813C43.5052 73.9115 42.8855 74.5833 42.4219 74.8281C41.7448 75.1771 40.8125 75.3281 39.8438 75.2865C39.7657 75.6354 39.6927 75.9792 39.6198 76.3125C40.5886 76.6354 45.1927 78.2917 46.4584 80.9011C46.8438 81.6927 46.8855 82.5 46.5834 83.3073C45.198 86.9844 37.7136 85.3594 33.948 83.9844C32.1771 83.3386 30.0834 82.1198 29.1771 80.5469C29.0052 80.9271 28.8334 81.3021 28.6563 81.6771C27.0157 85.2031 23.9011 87.3542 20.8855 89.4427C20.2344 89.8854 19.573 90.349 18.9271 90.8177C20.3698 91.3386 26.1459 93.3229 32.3021 94.2917C43.2709 96.0104 52.1771 93.0729 58.7709 85.5625C58.7761 85.5573 58.7761 85.5573 58.7813 85.5521C58.4115 85.2292 58.1198 84.8281 57.974 84.4167C57.7709 83.849 57.8438 83.2865 58.1771 82.7917C58.5573 82.2344 59.0782 81.9375 59.5782 82.0052C59.9948 82.0625 60.3334 82.3802 60.5052 82.8802C60.7605 83.6146 60.0782 84.625 59.349 85.4948C59.5677 85.6406 59.8021 85.7552 60.0469 85.8281C60.9271 86.0938 61.9063 85.8958 62.7709 85.7188C67.3698 84.7813 71.6875 84.6354 75.6094 85.2865C78.3386 85.7344 82.6146 86.7083 85.0417 88.6094C86.3334 86.5625 88.3073 84.7708 90.7761 83.4479C94.6355 81.3698 98.6719 80.8073 102.943 80.2136C103.865 80.0886 104.813 79.9531 105.75 79.8073C109.656 79.1875 113.859 77.9792 116.604 76.6927C113.578 75.224 108.406 72.6094 105.99 68.6354C105.776 68.2813 105.563 67.9271 105.354 67.5677C104.62 69.2344 102.672 70.6719 100.984 71.5104C97.3907 73.2865 90.1303 75.724 88.349 72.224C87.9636 71.4531 87.9167 70.6458 88.2136 69.8177C89.1875 67.0833 93.5834 64.9323 94.5053 64.5052C94.4011 64.1823 94.2917 63.849 94.1771 63.5104C93.2188 63.6563 92.2709 63.6146 91.5625 63.3333C91.073 63.1458 90.3855 62.5417 90.3698 61.9115C90.3594 61.2292 91.1511 60.9063 91.6303 60.7136L91.7136 60.6771C92.1615 60.4948 92.599 60.2761 93.0157 60.0469C92.7813 59.349 92.5365 58.6354 92.2969 57.9219C92.2032 57.9896 92.1094 58.0625 92.0157 58.1354C90.8907 59 89.4948 60.0729 88.2865 59.9792C87.4584 59.9115 87.0938 59.5365 86.9323 59.2292C86.6303 58.6615 86.7448 57.7969 87.2344 56.9219C87.4323 56.5677 87.6198 56.2761 87.8073 56.0104C86.8594 56.6563 86.0573 56.8229 85.4167 56.5156C84.8594 56.2396 84.5417 55.8333 84.474 55.3021C84.2032 53.1979 88.1042 49.8229 88.2709 49.6771C88.3542 49.6094 88.4792 49.6198 88.5469 49.6979C88.6198 49.7813 88.6094 49.9063 88.5261 49.9792C87.1771 51.1406 84.6667 53.7344 84.8646 55.25C84.9167 55.6511 85.1511 55.9479 85.5886 56.1563C86.2969 56.5052 87.2448 55.9636 87.9115 55.4479C88.474 55.0104 88.6615 54.8281 89.4375 54.0521C89.5105 53.9792 89.6355 53.9688 89.7136 54.0417C89.7917 54.1146 89.8073 54.2292 89.7396 54.3073C89.5365 54.5417 89.3542 54.75 89.1823 54.9427C88.5625 55.6458 88.1146 56.1563 87.5782 57.1146C87.1615 57.8646 87.0417 58.599 87.2813 59.0417C87.448 59.3594 87.7969 59.5417 88.3178 59.5833C89.375 59.6667 90.7084 58.6458 91.7761 57.8229C91.9063 57.724 92.0365 57.625 92.1615 57.5261C91.2761 54.9219 90.3803 52.3125 89.5886 50.0677C88.9115 49.6823 88.2448 49.2604 87.6875 48.7083C87.3646 48.3906 87.0938 48.0208 86.8907 47.6302C86.125 47.849 85.1771 47.9896 84.3282 47.8646C83.7084 47.7708 82.8646 47.2761 82.5209 46.6146C82.3177 46.224 82.3073 45.8281 82.4896 45.4636C82.9323 44.5729 84.6198 43.9636 85.7344 43.5625C85.8907 43.5052 86.0313 43.4583 86.1459 43.4115C86.2553 43.3698 86.3594 43.3281 86.4636 43.2917C85.9063 43.1458 85.3646 43.0156 84.8386 42.8906C82.7969 42.3958 80.8646 41.9271 78.7084 40.9896C77.4532 40.4427 73.1719 38.4531 70.9011 35.8698C70.1615 35.0313 69.4427 32.9948 68.8021 31.1979C68.6407 30.7396 68.4844 30.3021 68.3438 29.9219C67.0417 26.4531 65.6823 19.6302 64.8802 12.5365C64.8073 11.8594 64.6719 9.89584 64.7552 9.16147C64.9219 7.70834 67.8855 6.22918 71.1771 4.71355C71.2865 4.66147 82.6094 1.10943e-05 85.0886 1.29689C85.2605 1.38543 85.3907 1.50522 85.4792 1.64584C86.4375 1.91147 87.3959 2.70834 88.5365 4.55209C91.948 10.0886 94.3386 14.5313 96.4636 20.8698L96.5105 21.0104C96.7292 21.6458 96.974 22.3646 96.7605 23.0469C96.9844 23.1875 97.1667 23.3438 97.2969 23.5C97.599 23.8854 97.6667 24.3698 97.6928 24.7031C98.198 31.0781 94.6146 36.8854 90.9584 41.75C93.8438 40.9167 95.9011 40.7708 99.0365 40.9479C99.3282 40.9636 99.8646 41.0156 100.552 41.0781C102.672 41.2813 106.219 41.625 108.318 41.4896C109.182 41.4323 110.526 41.7344 111.297 42.1563C112.031 42.5625 112.557 43.2552 112.99 43.8802C114.844 46.5469 116.115 49.6198 117.344 52.5886C118.021 54.2188 118.719 55.9063 119.505 57.4948L119.677 57.8438C120.172 58.8594 120.688 59.9115 121.339 60.7969C124.51 65.1198 128.641 67.4427 132.26 69.2761C133.375 69.8854 134.74 70.3073 134.755 70.3125C134.844 70.3386 134.901 70.4219 134.891 70.5104C134.885 70.6042 134.818 70.6771 134.729 70.6927C132.604 71.0521 129.714 70.0677 126.917 69.1146C124.75 68.375 122.703 67.6771 121.099 67.6146C119.932 67.5677 118.75 67.7865 117.604 68C116.62 68.1823 115.599 68.3698 114.578 68.3958C111.667 68.4688 108.667 67.0417 106.734 64.6719C106.38 64.2344 106.063 63.6667 105.724 63.0677C105.063 61.8802 104.375 60.6511 103.354 60.3698C102.87 60.2344 102.344 60.3281 101.745 60.6458C102.297 61.5156 102.828 62.4011 103.339 63.2865C104.052 63.5833 104.724 64.0521 105.193 64.7813C105.641 65.4792 105.755 66.2448 105.531 67.0573C105.531 67.0677 105.526 67.0781 105.526 67.0833C105.792 67.5365 106.057 67.9896 106.328 68.4323C108.781 72.474 114.219 75.1042 117.141 76.5156C117.208 76.5469 117.255 76.6198 117.255 76.6927C117.255 76.7656 117.214 76.8386 117.146 76.8698C114.38 78.2396 109.932 79.5469 105.813 80.1979C104.87 80.3438 103.917 80.4792 102.995 80.6042C98.7605 81.1979 94.7605 81.7552 90.9636 83.7917C88.5365 85.099 86.599 86.8542 85.3438 88.8646C85.9167 89.3646 86.3542 89.9219 86.6146 90.5469C87.073 91.6406 86.3386 93.1198 85.4375 93.5156C84.8125 93.7917 84.2396 93.5156 83.8959 92.7708C83.5573 92.0365 83.8073 91.1927 84.0313 90.6198C84.25 90.0469 84.5209 89.4844 84.8386 88.9427C82.5105 87.0833 78.25 86.1198 75.5469 85.6719C71.6719 85.0365 67.4011 85.1823 62.849 86.1042C61.9375 86.2917 60.9063 86.5 59.9323 86.2083C59.6407 86.1198 59.3542 85.974 59.0886 85.7969C59.0834 85.8073 59.073 85.8125 59.0677 85.8229C53.6146 92.0365 46.6094 95.1615 38.1823 95.1615Z" fill="black"></path></g></svg> 