<?xml version="1.0" encoding="UTF-8"?> <svg xmlns="http://www.w3.org/2000/svg" width="98" height="99" viewBox="0 0 98 99" fill="none"><path fill-rule="evenodd" clip-rule="evenodd" d="M50.1775 76.1042C50.1931 76.1823 50.1462 76.2552 50.0733 76.276C49.8806 76.3542 49.7712 76.3177 49.7452 76.2969C49.6775 76.2552 49.641 76.1771 49.6983 76.0677C49.7139 76.0365 49.7764 75.974 49.8806 75.901C50.2296 75.6563 51.1462 75.1615 51.2191 75.1146L54.9431 72.8177C57.6619 71.0938 59.9587 68.8594 62.516 66.9583C63.1566 66.4792 63.8181 66.0156 64.5056 65.5938C69.4275 62.5365 74.7504 58.9844 79.8858 55.1927C83.9431 52.1979 87.8858 49.0469 91.4275 45.875C92.266 45.1198 93.0681 44.349 93.8806 43.6146C93.9744 43.5312 94.0681 43.4531 94.1619 43.375C94.2296 43.3073 94.3389 43.3073 94.4014 43.375C94.4691 43.4427 94.4639 43.5521 94.3962 43.6146C94.3129 43.7083 94.2348 43.7969 94.1462 43.8854C93.3754 44.6719 92.5369 45.4115 91.6983 46.1719C88.1566 49.3646 84.2035 52.5208 80.1306 55.5208C74.9796 59.3125 69.641 62.8542 64.7035 65.901C64.0212 66.3229 63.3702 66.776 62.7348 67.25C60.1723 69.1615 57.8702 71.3958 55.141 73.1302L51.4119 75.4271C51.3441 75.4635 50.5837 75.8594 50.1775 76.1042ZM49.9223 76.0052C49.891 75.9635 49.8546 75.9479 49.8598 76.0052C49.8598 76.0208 49.891 76.0156 49.9223 76.0052Z" fill="#010101"></path><path fill-rule="evenodd" clip-rule="evenodd" d="M6.96381 43.0573C7.12527 43.2135 7.55756 43.5469 7.57318 43.5625C7.89089 43.8125 8.21381 44.0469 8.54714 44.2812C9.04193 44.6302 9.55235 44.9635 10.0628 45.2917C11.3076 46.0833 12.4951 46.9792 13.6461 47.9219C15.3596 49.3229 17.0003 50.8333 18.6617 52.276C20.1201 53.5521 21.7034 54.6823 23.2034 55.9062C23.5836 56.2187 23.9534 56.5312 24.3232 56.8542C25.1148 57.5573 25.7919 58.3594 26.5523 59.0781C26.8701 59.3802 27.2034 59.6667 27.568 59.9219C30.4534 61.9792 33.5055 63.8177 36.4534 65.8021C37.719 66.6562 38.9638 67.5417 40.1669 68.4792C41.3388 69.3958 42.5107 70.4635 43.7346 71.3906C44.2607 71.7917 44.7971 72.1667 45.3492 72.4948C45.9742 72.8698 47.7138 73.7865 48.9065 74.7187C49.5263 75.2135 50.0003 75.7187 50.1201 76.151C50.1461 76.2552 50.0888 76.3542 49.9898 76.3854C49.8909 76.4115 49.7867 76.3542 49.7555 76.2552C49.6513 75.875 49.2138 75.4531 48.6617 75.026C47.4794 74.1094 45.7555 73.2187 45.1305 72.8542C44.568 72.5208 44.0211 72.1354 43.4794 71.724C42.2555 70.7917 41.0784 69.7292 39.9065 68.8125C38.7086 67.875 37.4742 66.9948 36.2138 66.1458C33.2711 64.151 30.2138 62.3125 27.3336 60.25C26.9534 59.9792 26.6096 59.6771 26.2763 59.3646C25.5211 58.6458 24.844 57.8437 24.0576 57.1458C23.6982 56.8281 23.3284 56.5156 22.9534 56.2083C21.4534 54.9792 19.8648 53.8437 18.4065 52.5677C16.7503 51.1198 15.1148 49.6094 13.4065 48.2083C12.2659 47.276 11.094 46.3906 9.85964 45.599C9.34402 45.2708 8.8336 44.9323 8.3336 44.5781C7.99506 44.3437 7.66693 44.0989 7.34402 43.8437C7.3336 43.8333 7.10443 43.6667 6.91172 43.5C6.90652 43.526 6.90652 43.5469 6.90131 43.4948C6.8961 43.4896 6.88568 43.4792 6.88047 43.474C6.87006 43.5104 6.85443 43.5677 6.87006 43.4844C6.80756 43.4687 6.76068 43.4167 6.75547 43.3594C6.75547 43.3646 6.75027 43.3646 6.75027 43.3646C6.71902 43.375 6.66693 43.2969 6.65652 43.2396C6.58881 43.1354 6.60443 43.0417 6.62527 43.0052C6.68256 42.9271 6.74506 42.8906 6.82839 42.9219C6.84922 42.9323 6.91693 42.9635 6.9586 43.0469C6.9586 43.0469 6.96381 43.0521 6.96381 43.0573ZM6.85964 43.1771L6.86485 43.1823C6.85443 43.1562 6.85443 43.1354 6.85964 43.1771ZM6.90131 43.1875C6.90652 43.125 6.90131 43.1562 6.90131 43.1875ZM7.00027 43.4687C7.04193 43.5156 7.0211 43.4948 7.00027 43.4687Z" fill="#010101"></path><path fill-rule="evenodd" clip-rule="evenodd" d="M50.0263 76.302C49.8857 76.3645 49.6565 76.4687 49.5575 76.5416C49.0575 76.9218 48.6044 77.3541 48.1252 77.75C47.9169 77.927 47.6982 78.0937 47.469 78.25C46.5263 78.8958 45.5888 79.5729 44.6617 80.2708C43.7398 80.9687 42.8336 81.6875 41.9534 82.427C38.9482 85.0104 35.5575 87.3645 32.5211 90.026C31.2242 91.1666 29.9846 92.3646 28.87 93.6666C28.5784 94.0104 28.2554 94.3333 27.9221 94.6458C27.1565 95.3541 26.3127 96 25.5471 96.6875C25.3857 96.8333 25.0679 97.2031 24.7502 97.3906C24.5523 97.5104 24.3544 97.5677 24.1877 97.5208C24.0888 97.5 24.0211 97.401 24.0471 97.302C24.0679 97.2031 24.1669 97.1354 24.2711 97.1614C24.3857 97.1823 24.5054 97.0781 24.6409 96.9739C24.8961 96.7812 25.1409 96.5052 25.2711 96.3854C26.0367 95.6979 26.8752 95.052 27.6357 94.3437C27.9586 94.0416 28.2711 93.7291 28.5523 93.3958C29.6773 92.0781 30.9221 90.8593 32.245 89.7135C35.2971 87.0573 38.719 84.7448 41.7502 82.1875C42.62 81.4323 43.5211 80.6927 44.4377 79.9843C45.3596 79.2708 46.2971 78.5833 47.245 77.9218C47.3857 77.8229 47.5263 77.7187 47.6617 77.6093C48.2294 77.1666 48.745 76.6666 49.3232 76.2395C49.4638 76.1354 49.8075 75.9479 49.9898 75.9375C50.1252 75.927 50.2086 75.9687 50.2346 76.0156C50.2659 76.0677 50.3127 76.1406 50.245 76.25C50.2086 76.3229 50.1148 76.3489 50.0419 76.3125C50.0367 76.3073 50.0315 76.3073 50.0263 76.302Z" fill="#010101"></path><path fill-rule="evenodd" clip-rule="evenodd" d="M6.44792 97.4219C6.46354 97.4271 6.47917 97.4323 6.48958 97.4427C6.57292 97.5 6.59375 97.6198 6.53646 97.6979C6.50521 97.7656 6.45313 97.7812 6.42188 97.8021C6.33333 97.8594 6.24479 97.8177 6.16667 97.7239C6.13542 97.6927 6.10937 97.6094 6.10417 97.5052C6.08854 97.3646 6.09896 97.1354 6.07813 97.026C6.04687 96.8281 6.02604 96.6302 6.00521 96.4323C5.98438 96.1406 5.96875 95.8489 5.95313 95.5573C5.91667 95.0104 5.91667 94.4635 5.94271 93.9166C5.97396 93.1041 6.05729 92.2916 6.14583 91.4844C6.3125 89.9479 6.36979 88.375 6.36458 86.7969C6.36458 84.4271 6.22917 82.0416 6.13542 79.7291C5.98958 76.125 5.92188 72.526 5.92188 68.9323C5.92188 65.3385 5.98958 61.7448 6.11979 58.1406C6.21875 55.1406 6.56771 51.2604 6.57813 47.8854C6.58333 46.4531 6.52083 45.1094 6.36458 43.9583C6.35417 43.8906 6.33854 43.8177 6.33333 43.7448C6.32813 43.6719 6.33854 43.5989 6.33854 43.526C6.32292 43.4427 6.38021 43.3646 6.45833 43.3541C6.54167 43.3385 6.61979 43.3906 6.63542 43.4739C6.66146 43.5469 6.6875 43.6146 6.70833 43.6875C6.72396 43.7604 6.72917 43.8333 6.73958 43.9062C6.90625 45.0677 6.95313 46.4323 6.94271 47.8854C6.91667 51.2656 6.5625 55.1458 6.45833 58.151C6.33854 61.75 6.27604 65.3385 6.28646 68.9323C6.29167 72.5208 6.36979 76.1146 6.52604 79.7083C6.63021 82.0312 6.77604 84.4219 6.78125 86.7969C6.78646 88.3906 6.73437 89.9791 6.5625 91.5312C6.47917 92.3281 6.39583 93.1302 6.35938 93.9323C6.33854 94.4635 6.33854 94.9948 6.36979 95.5312C6.38542 95.8177 6.40104 96.1094 6.42188 96.3958C6.4375 96.5833 6.45833 96.7708 6.48958 96.9583C6.50521 97.0469 6.44271 97.2864 6.44792 97.4219ZM6.45313 97.4583C6.46354 97.5 6.47917 97.5208 6.51042 97.5156C6.55729 97.5104 6.49479 97.4791 6.45313 97.4583Z" fill="#010101"></path><mask id="mask0_4227_1053" style="mask-type:luminance" maskUnits="userSpaceOnUse" x="92" y="42" width="4" height="57"><path d="M92.8335 42.7812H95.5002V99H92.8335V42.7812Z" fill="white"></path></mask><g mask="url(#mask0_4227_1053)"><path fill-rule="evenodd" clip-rule="evenodd" d="M94.9949 43.3437C95.0678 43.3854 95.0939 43.4791 95.0522 43.5468C95.0105 43.6198 94.9168 43.6458 94.8439 43.6041C94.7397 43.5468 94.7189 43.651 94.6772 43.7812C94.6147 43.9843 94.5783 44.2708 94.5574 44.6041C94.4949 45.7239 94.6095 47.3385 94.5366 48.0364C94.396 49.3906 94.323 50.7448 94.2814 52.0989C94.1928 55.2708 94.3074 58.4479 94.1928 61.625C94.0314 66.5521 93.8283 71.5052 93.6772 76.4479C93.573 79.75 93.4897 83.0468 93.4533 86.3333C93.422 89.2343 93.6928 92.151 93.7449 95.0625C93.7658 96.3177 93.7397 97.5677 93.6355 98.8229C93.6303 98.9218 93.5418 99 93.4376 98.9895C93.3387 98.9843 93.2605 98.8958 93.2658 98.7968C93.3491 97.552 93.3491 96.3125 93.3178 95.0677C93.2501 92.1562 92.9949 89.2343 93.0314 86.3281C93.0678 83.0364 93.1564 79.7396 93.271 76.4375C93.4376 71.4896 93.6564 66.5416 93.8387 61.6146C93.948 58.4375 93.8387 55.2604 93.9168 52.0885C93.9533 50.7239 94.021 49.3646 94.1616 48C94.2449 47.1927 94.073 45.151 94.2293 44.0781C94.2501 43.9166 94.2762 43.776 94.3178 43.6614C94.4637 43.276 94.698 43.1458 94.9949 43.3437Z" fill="#010101"></path></g><path fill-rule="evenodd" clip-rule="evenodd" d="M7.45845 97.5469C8.09907 97.6146 9.13553 97.5938 9.25011 97.5938C10.5105 97.6094 11.8022 97.6198 13.0887 97.5833C13.9428 97.5573 14.797 97.5104 15.6355 97.4427C18.6095 97.1875 21.6512 97.0261 24.6928 96.9896C27.7293 96.9479 30.7709 97.0261 33.7605 97.2448C35.2397 97.3594 36.7189 97.3646 38.198 97.3125C41.6668 97.2031 45.1303 96.8021 48.6043 96.7917C55.8855 96.7761 63.1564 96.9531 70.4324 97.0208C73.547 97.0469 76.6616 97.0521 79.7814 97.0104C80.8282 97 81.8959 97.0417 82.9741 97.1198C85.4428 97.2969 87.948 97.6406 90.3595 97.8125C90.573 97.8281 92.3022 98.2344 93.0001 98.2604C93.0574 98.2604 93.1199 98.2552 93.1512 98.2552C93.2189 98.2031 93.3126 98.1927 93.3907 98.2396C93.4897 98.3021 93.5262 98.4323 93.4637 98.5365C93.4376 98.5833 93.3855 98.6302 93.297 98.6615C93.1928 98.6927 92.9637 98.6979 92.672 98.6615C91.8699 98.5677 90.5157 98.2604 90.3282 98.2448C87.9168 98.0781 85.4116 97.7344 82.9428 97.5625C81.8803 97.4844 80.823 97.4427 79.7866 97.4583C76.6668 97.5052 73.547 97.5 70.4272 97.474C63.1564 97.4115 55.8855 97.2188 48.6095 97.2344C45.1355 97.2396 41.6772 97.6354 38.2137 97.7396C36.7189 97.7865 35.2241 97.7813 33.7293 97.6667C30.7553 97.4427 27.7241 97.3542 24.698 97.3854C21.6668 97.4167 18.6355 97.5677 15.6668 97.8125C14.823 97.8802 13.9584 97.9219 13.0939 97.9479C11.8074 97.9844 10.5105 97.9844 9.2449 97.974C9.12511 97.974 7.96886 98.0052 7.31782 97.9219C7.06782 97.8854 6.8647 97.8438 6.8074 97.7656C6.76574 97.7031 6.72928 97.6719 6.7449 97.6198C6.76053 97.5365 6.73449 97.4688 6.81782 97.4427C6.83865 97.4375 6.88553 97.4063 6.96886 97.4219C7.06782 97.4375 7.31782 97.5156 7.34386 97.5156C7.38553 97.5104 7.42719 97.5208 7.45845 97.5469ZM7.0522 97.4844C7.0522 97.4688 7.05219 97.4583 7.04699 97.4688C7.04699 97.474 7.04699 97.4792 7.0522 97.4844Z" fill="#010101"></path><mask id="mask1_4227_1053" style="mask-type:luminance" maskUnits="userSpaceOnUse" x="51" y="13" width="47" height="62"><path d="M51.5 13.4479H98V74.7813H51.5V13.4479Z" fill="white"></path></mask><g mask="url(#mask1_4227_1053)"><path fill-rule="evenodd" clip-rule="evenodd" d="M83.0258 27.8021C82.38 28.5729 81.63 29.2969 80.8331 30C78.906 31.6979 76.6873 33.25 75.005 34.9531C74.5414 35.4219 74.1196 35.9323 73.7185 36.4636C72.7654 37.7083 71.9112 39.0625 70.906 40.2396C68.6248 42.9011 66.3018 45.5729 64.1404 48.3594C62.7029 50.2136 61.3383 52.1198 60.1091 54.1146C59.781 54.6459 59.4946 55.1927 59.2289 55.7552C58.6039 57.0781 58.0987 58.4531 57.4529 59.7813C56.6352 61.4636 55.781 63.0938 54.9946 64.7656C54.4789 65.875 53.9893 67 53.5571 68.1667C53.0466 69.5521 52.8175 71.625 52.3591 73.1823C52.2393 73.5938 52.1248 73.9896 51.9425 74.2969C51.9164 74.3386 51.8904 74.3698 51.8591 74.4063C51.8227 74.4792 51.7289 74.5104 51.656 74.4688C51.5831 74.4271 51.5571 74.3386 51.5935 74.2656C51.6196 74.2084 51.6352 74.1511 51.6612 74.0938C51.8539 73.6302 52.0466 73.0781 52.1925 72.4688C52.5466 71 52.7758 69.2604 53.2185 68.0417C53.6456 66.8646 54.13 65.724 54.6456 64.6042C55.4164 62.9219 56.255 61.2813 57.0623 59.5938C57.7029 58.2656 58.1977 56.8906 58.8227 55.5625C59.0883 54.9896 59.3852 54.4271 59.7237 53.8802C60.9633 51.875 62.3331 49.9531 63.781 48.0886C65.9477 45.2917 68.2758 42.6146 70.5623 39.9479C71.5623 38.7813 72.4112 37.4323 73.3591 36.1979C73.7758 35.6511 74.2081 35.125 74.6821 34.6458C76.3748 32.9323 78.6039 31.375 80.5414 29.6719C81.38 28.9375 82.1612 28.1771 82.8227 27.3646C84.6664 25.0886 86.406 22.6771 88.3696 20.4792C89.6873 19 91.1039 17.625 92.7185 16.4479C93.3591 15.9792 94.6143 14.9583 95.7706 14.5156C96.3696 14.2865 96.9425 14.2188 97.406 14.4115C97.7341 14.5521 97.8904 14.8229 97.9373 15.1354C97.9946 15.5365 97.8696 16.0208 97.7341 16.3281C97.4633 16.9479 97.1091 17.5886 96.7029 18.1875C96.2914 18.7917 95.8227 19.3542 95.3227 19.8229C94.7602 20.349 94.1508 20.7813 93.5102 21.1719C92.0362 22.0625 90.4112 22.6875 88.9216 23.5781C88.0518 24.099 87.031 24.6406 86.1091 25.2136C85.7029 25.4688 85.3175 25.724 84.9685 25.9948C84.4164 26.4219 83.9529 26.9792 83.4216 27.4688C83.2914 27.5833 83.1612 27.6979 83.0258 27.8021ZM84.5883 25.8281C84.6404 25.7865 84.6925 25.7448 84.7446 25.7031C85.0987 25.4271 85.4893 25.1563 85.906 24.8958C86.8279 24.3125 87.8539 23.7761 88.7237 23.2552C90.2133 22.3594 91.8383 21.7292 93.3123 20.8386C93.9268 20.4688 94.5206 20.0469 95.0571 19.5417C95.5414 19.0938 95.9946 18.5573 96.3904 17.9792C96.7914 17.4011 97.1352 16.7813 97.4008 16.1823C97.5102 15.9271 97.6248 15.5261 97.5727 15.1927C97.5414 15.0104 97.4529 14.849 97.2602 14.7708C96.7602 14.5677 96.1143 14.7656 95.4685 15.0938C94.4841 15.5833 93.505 16.3854 92.9685 16.7813C91.38 17.9427 89.9893 19.3073 88.6925 20.7604C87.2498 22.3802 85.9216 24.1198 84.5883 25.8281Z" fill="#010101"></path></g><path fill-rule="evenodd" clip-rule="evenodd" d="M69.0888 41.8542C69.1252 41.8177 69.4221 41.4635 69.4638 41.4219C69.6565 41.2135 69.87 41.0312 70.094 40.8698C70.3179 40.7083 70.5523 40.5677 70.8023 40.4323C71.3544 40.1302 71.9065 39.8177 72.4533 39.5C72.7606 39.3229 73.0679 39.1406 73.3752 38.9583C73.3961 38.9323 73.4221 38.9167 73.4533 38.9062C73.4638 38.901 73.4742 38.8958 73.4846 38.8958C73.9586 38.6146 74.4273 38.3281 74.8961 38.0469C75.3961 37.7448 75.8908 37.4115 76.4065 37.125C76.7606 36.9271 77.12 36.75 77.5002 36.6198C78.4586 36.2917 79.5367 36.0521 80.6252 35.9531C81.719 35.8489 82.8231 35.8802 83.8283 36.0885C84.2294 36.1771 84.6252 36.2917 85.0002 36.4531C85.2554 36.5677 85.495 36.6979 85.7242 36.8594C85.8075 36.9219 86.12 37.1302 86.1877 37.3021C86.2294 37.4219 86.219 37.5312 86.1148 37.625C86.0106 37.7135 85.8908 37.7917 85.7658 37.8646C85.5002 38.0156 85.1981 38.1406 84.9429 38.2708C84.5002 38.5052 84.0315 38.7292 83.5471 38.8906C83.2138 38.9948 82.8752 39.0729 82.5315 39.1042C82.094 39.1458 81.6513 39.1406 81.1981 39.1094C80.1877 39.0417 79.1513 38.849 78.1773 38.7656C77.3648 38.6927 76.5992 38.6875 75.8388 38.7552C75.1096 38.8177 74.3856 38.9531 73.6513 39.1719C73.3075 39.375 72.9585 39.5781 72.6148 39.7812C72.0679 40.0989 71.5158 40.4114 70.9586 40.7135C70.719 40.8385 70.495 40.974 70.2815 41.125C70.0679 41.276 69.87 41.4427 69.6877 41.6354C69.6461 41.6771 69.4638 41.9427 69.3179 42.0625C69.2242 42.1406 69.1252 42.1667 69.0627 42.151C68.9846 42.1302 68.9325 42.0469 68.9533 41.9687C68.969 41.901 69.0263 41.8594 69.0888 41.8542ZM74.6356 38.5833C75.0263 38.5 75.4117 38.4375 75.8023 38.401C76.5836 38.3229 77.3752 38.3281 78.2086 38.401C79.1825 38.4896 80.2138 38.6823 81.2242 38.7552C81.6565 38.7864 82.0836 38.7969 82.5002 38.7604C82.8179 38.7344 83.1356 38.6667 83.4429 38.5677C83.9117 38.4167 84.3596 38.2031 84.7919 37.9792C85.0002 37.8646 85.2554 37.7604 85.4846 37.6302C85.594 37.5729 85.6929 37.5104 85.7867 37.4323C85.6825 37.3958 85.5523 37.2083 85.5054 37.1771C85.2398 37.0052 84.9586 36.8698 84.6617 36.7656C84.3648 36.6562 84.0523 36.5729 83.7398 36.5104C82.7763 36.2969 81.7138 36.25 80.6565 36.3333C79.5992 36.4167 78.5471 36.6302 77.6096 36.9427C77.2502 37.0625 76.9065 37.2239 76.5679 37.4114C76.0575 37.6979 75.5627 38.026 75.0679 38.3229C74.9221 38.4114 74.7763 38.5 74.6356 38.5833Z" fill="#010101"></path><path fill-rule="evenodd" clip-rule="evenodd" d="M64.292 47.3958V47.401C64.3024 47.4167 64.3233 47.4062 64.3493 47.3854C64.3545 47.3854 64.3649 47.3854 64.3754 47.3906C64.3649 47.3854 64.3597 47.3854 64.3545 47.3802C64.4014 47.3333 64.4587 47.25 64.4639 47.2448C64.5472 47.1614 64.6254 47.0677 64.6931 46.9739C64.8077 46.8281 64.9014 46.6667 64.9952 46.5104C65.3233 45.9583 65.6254 45.3906 65.9066 44.8177C66.1045 44.4062 66.292 43.9948 66.4639 43.5781C66.4691 43.5625 66.4691 43.5521 66.4691 43.5364C66.49 43.2812 66.4483 43.0312 66.5108 42.7656C66.5889 42.4323 66.7608 42.1094 66.8806 41.776C66.9327 41.651 66.9691 41.5208 66.9899 41.3854C67.1045 40.6562 67.0681 39.9531 66.9274 39.276C66.7191 38.2344 66.2764 37.2396 65.7764 36.2708C65.4795 35.6927 65.0056 35.25 64.667 34.7135C64.516 34.4687 64.3962 34.2031 64.3181 33.9062C64.2295 33.5364 64.2399 33.1719 64.3233 32.8281C64.4431 32.3281 64.7139 31.8542 65.0212 31.4323C65.1879 31.2083 65.3754 30.9792 65.6097 30.8437C65.792 30.7448 65.9952 30.6927 66.2295 30.7344C66.7399 30.8229 67.1879 31.2187 67.542 31.7448C68.0264 32.4479 68.3337 33.3802 68.4274 33.9635C68.667 35.5208 68.5837 37.1094 68.3024 38.6667C68.016 40.2135 67.5368 41.7344 66.9743 43.1719C66.9066 43.3437 66.8337 43.5208 66.7608 43.6927C66.7504 43.7656 66.7295 43.8437 66.6931 43.9219C66.6827 43.9531 66.6618 43.9792 66.6306 43.9948C66.4899 44.3177 66.3441 44.6354 66.1879 44.9531C65.9014 45.5364 65.5941 46.1042 65.2608 46.6667C65.1618 46.8281 65.0577 47 64.9379 47.1562C64.8597 47.2604 64.7712 47.3646 64.6774 47.4583C64.667 47.4687 64.516 47.6198 64.4483 47.6562C64.3389 47.7187 64.2608 47.6667 64.2295 47.6354C64.1722 47.5729 64.1827 47.4792 64.2452 47.4219C64.2608 47.4114 64.2764 47.401 64.292 47.3958ZM64.292 47.3958C64.2712 47.3594 64.3077 47.3646 64.3545 47.3802C64.3493 47.3802 64.3493 47.3854 64.3493 47.3854C64.3285 47.3854 64.3077 47.3906 64.292 47.3958ZM67.4014 40.9531C67.6306 40.1823 67.8233 39.401 67.9639 38.6094C68.2347 37.0885 68.3077 35.5364 68.0681 34.0156C67.9795 33.4739 67.6879 32.6094 67.2347 31.9531C66.9431 31.526 66.5837 31.1771 66.1618 31.1094C66.0264 31.0833 65.9066 31.1146 65.8024 31.1771C65.615 31.2864 65.4691 31.4792 65.3337 31.6614C65.1045 31.9792 64.8962 32.3281 64.7712 32.6979C64.6462 33.0521 64.6045 33.4271 64.6983 33.8125C64.7608 34.0729 64.8702 34.3021 65.0004 34.5104C65.3389 35.0573 65.8181 35.5104 66.1149 36.0937C66.6306 37.0989 67.0785 38.1302 67.292 39.2031C67.4014 39.7708 67.4483 40.3542 67.4014 40.9531Z" fill="#010101"></path><path fill-rule="evenodd" clip-rule="evenodd" d="M63.7449 50.4948C63.7345 50.5 63.724 50.5104 63.7136 50.5208C63.3386 50.8177 62.9688 51.1302 62.599 51.4427C62.2345 51.7552 61.8699 52.0781 61.5105 52.401C61.3334 52.5573 61.1563 52.7187 60.9845 52.8906C60.8751 53 60.7605 53.1146 60.6563 53.2343C60.6563 53.2343 60.5886 53.3281 60.5418 53.3906C60.5418 53.3906 60.5418 53.3958 60.547 53.401C60.573 53.4791 60.5261 53.5625 60.448 53.5885C60.3386 53.625 60.2761 53.5833 60.2449 53.5521C60.2084 53.5156 60.1824 53.4583 60.2032 53.375C60.2292 53.276 60.4168 53.0364 60.422 53.0312C60.5574 52.875 60.698 52.7239 60.8438 52.5781C60.9897 52.4323 61.1407 52.2916 61.2918 52.1562C61.6511 51.8281 62.0105 51.5052 62.3803 51.1875C62.7449 50.8698 63.1147 50.5573 63.4949 50.25C63.8595 49.9531 64.224 49.6458 64.6147 49.375C64.8751 49.1927 65.1511 49.0208 65.4428 48.8802C66.1251 48.5416 66.8386 48.2968 67.5678 48.1093C68.6459 47.8281 69.7605 47.6666 70.8595 47.4791C71.6668 47.3437 72.5209 47.2448 73.2449 47.4843C73.7345 47.651 74.172 47.9687 74.4949 48.5364C74.797 49.0677 74.5886 49.5104 74.1563 49.8437C73.6303 50.2552 72.7553 50.4896 72.3074 50.5C72.1095 50.5052 71.9115 50.4843 71.7188 50.4531C71.297 50.3802 70.8803 50.2396 70.4584 50.1771C69.724 50.0625 68.974 49.9583 68.224 49.8802C67.724 49.8281 67.224 49.7864 66.7293 49.7656C66.3543 49.7552 65.9949 49.7239 65.6303 49.7448C65.4063 49.7604 65.1772 49.7916 64.948 49.8698C64.8438 49.9062 64.7449 49.9531 64.6511 50.0156C64.4115 50.1666 64.1928 50.3646 63.9532 50.5156C63.8855 50.5573 63.8022 50.5468 63.7449 50.4948ZM65.1615 49.4479C65.3126 49.4114 65.4584 49.3958 65.6095 49.3802C65.9793 49.3541 66.3542 49.3802 66.7397 49.3854C67.3751 49.401 68.0105 49.4479 68.6459 49.5208C69.2761 49.5937 69.9011 49.6927 70.5209 49.7968C70.9428 49.8646 71.3595 50.0104 71.7865 50.0885C71.9532 50.1198 72.1251 50.1354 72.297 50.1354C72.698 50.1302 73.474 49.9323 73.9428 49.5729C74.224 49.3489 74.3855 49.0625 74.1824 48.7135C73.9063 48.2448 73.5365 47.9791 73.1251 47.8489C72.4584 47.6302 71.672 47.7396 70.9272 47.8698C69.8386 48.0468 68.7345 48.2031 67.6615 48.4739C66.9584 48.6562 66.2657 48.8854 65.6043 49.2031C65.4532 49.276 65.3074 49.3593 65.1615 49.4479Z" fill="#010101"></path><path fill-rule="evenodd" clip-rule="evenodd" d="M58.1875 55.3177C58.1719 55.7604 58.1615 56.2031 58.1875 56.6302C58.1979 56.7188 58.125 56.7969 58.0365 56.8073C58.0313 56.8073 58.0261 56.8073 58.0156 56.8073L57.9479 57.4115C57.8802 57.8802 57.7813 58.3542 57.6459 58.8125C57.5104 59.2761 57.3386 59.7292 57.1146 60.1563C57.0625 60.2656 56.9531 60.5104 56.8438 60.6979C56.7813 60.8125 56.7136 60.9011 56.6563 60.9479C56.5886 61 56.4948 60.9896 56.4427 60.9271C56.3906 60.8594 56.4011 60.7656 56.4688 60.7136C56.5156 60.6771 56.5677 60.5833 56.6198 60.4792C56.7084 60.3073 56.7969 60.1094 56.8386 60.0156C57.0469 59.6042 57.2084 59.1719 57.3386 58.724C57.4636 58.2761 57.5573 57.8177 57.6198 57.3646L57.8334 55.4636C57.8438 54.7292 57.875 53.9792 57.7917 53.2604C57.7396 52.7969 57.6354 52.3438 57.4427 51.9115C57.2709 51.5313 57.0521 51.1823 56.8125 50.8542C56.4479 50.3438 56.0313 49.8698 55.6354 49.3698C55.4011 49.0729 55.1459 48.8229 54.9427 48.5313C54.7969 48.3229 54.6719 48.099 54.5938 47.8333C54.4427 47.3021 54.2969 46.3021 54.4479 45.4792C54.5573 44.8438 54.8438 44.3177 55.3802 44.1198C55.5834 44.0417 55.8021 44.0573 56.0209 44.125C56.2969 44.2136 56.5625 44.3802 56.7656 44.5156C57.2188 44.8125 57.5625 45.2136 57.8334 45.6719C58.2292 46.3333 58.4636 47.1094 58.6354 47.8229C58.8594 48.7188 58.8959 49.6458 58.8386 50.5833C58.7604 51.9531 58.474 53.3386 58.2604 54.6511L58.1875 55.3177ZM58.1719 53.1771C58.3177 52.3177 58.4531 51.4375 58.5 50.5625C58.5521 49.6667 58.5104 48.7708 58.2969 47.9063C58.1198 47.2292 57.8959 46.4896 57.5156 45.8594C57.2709 45.4531 56.9636 45.0938 56.5573 44.8333C56.3802 44.7188 56.1459 44.5677 55.9063 44.4948C55.7761 44.4531 55.6406 44.4323 55.5156 44.4792C55.1094 44.6354 54.9167 45.0573 54.8281 45.5469C54.6927 46.3073 54.8281 47.2344 54.9688 47.724C55.0365 47.9479 55.1354 48.1354 55.2604 48.3073C55.4636 48.5938 55.7084 48.8386 55.9427 49.1302C56.3386 49.6354 56.7604 50.1146 57.1302 50.6302C57.3802 50.9792 57.6094 51.349 57.7917 51.75C58 52.2083 58.1146 52.6875 58.1719 53.1771Z" fill="#010101"></path><path fill-rule="evenodd" clip-rule="evenodd" d="M50.4168 75.5938C50.422 75.6198 50.422 75.6458 50.4168 75.6667C50.4168 75.6927 50.4168 75.7135 50.4116 75.7292C50.4012 75.9583 50.297 76.0938 50.2189 76.1146C50.1252 76.1406 50.0418 76.125 50.0054 76.0104C50.0002 75.9948 49.9897 75.9531 50.0002 75.8958C50.0106 75.8542 50.0366 75.7865 50.0574 75.724C50.0679 75.401 49.9637 74.7969 49.9585 74.7396L49.5522 70.6823C49.422 69.3333 49.2345 67.9948 49.0314 66.6563C48.7241 64.6458 48.3647 62.6406 48.0418 60.6302C47.9637 60.1406 47.9116 59.651 47.8647 59.1563C47.7658 58.0156 47.7293 56.8698 47.6199 55.7292C47.5314 54.6979 47.3908 53.6458 47.3074 52.5938C47.2554 51.8802 47.2293 51.1719 47.2606 50.4688C47.2866 49.875 47.3491 49.2865 47.4272 48.7031C47.6043 47.349 47.8647 46.0052 48.0158 44.651C48.2345 42.5625 48.4429 40.5208 48.8335 38.4948C49.0939 37.1458 49.4324 35.8073 49.9012 34.4688C50.1356 33.7969 50.422 33.151 50.7397 32.5156C51.3283 31.3542 51.9897 30.2188 52.5783 29.0677C52.7293 28.776 52.8804 28.4948 53.021 28.2031C53.0574 28.1146 53.1564 28.0729 53.2449 28.1094C53.3335 28.1458 53.3804 28.2448 53.3439 28.3333C53.2137 28.6875 53.0835 29.0417 52.9272 29.3854C52.3127 30.7344 51.5106 32.0104 50.896 33.3594C50.7033 33.776 50.5262 34.1979 50.3752 34.6302C49.9168 35.9479 49.5835 37.2604 49.3231 38.5885C48.922 40.599 48.6877 42.625 48.4429 44.6979C48.2918 46.0573 48.0262 47.401 47.8543 48.7552C47.7814 49.3281 47.7293 49.9063 47.7085 50.4844C47.6877 51.1719 47.7189 51.8646 47.7814 52.5573C47.8752 53.6042 48.0262 54.651 48.1252 55.6823C48.2293 56.8229 48.2606 57.9688 48.3595 59.1094C48.4012 59.5938 48.4533 60.0781 48.5262 60.5573C48.8335 62.5677 49.1772 64.5781 49.4741 66.5885C49.672 67.9375 49.8439 69.2865 49.9689 70.6406L50.3335 74.7031C50.3387 74.75 50.4116 75.2396 50.4168 75.5938Z" fill="#010101"></path><path fill-rule="evenodd" clip-rule="evenodd" d="M37.0157 17.5312C37.099 17.6875 37.5886 17.9739 37.6719 18.0885C37.8646 18.3698 38.0365 18.6666 38.198 18.9739C38.4375 19.4218 38.6459 19.8906 38.8594 20.3437C39.6719 22.0364 40.6146 23.6718 41.4844 25.3385C41.8594 26.0573 42.2188 26.7812 42.5521 27.5208C42.7709 28.0104 42.9688 28.5208 43.1511 29.0312C43.5678 30.2083 43.9167 31.4271 44.3178 32.5937C44.9375 34.3958 45.5834 36.2396 46.1459 38.0989C46.5209 39.3437 46.8542 40.5989 47.1146 41.8489C47.4219 43.3125 47.6146 44.7812 47.7292 46.25C47.8438 47.7187 47.8803 49.1979 47.9063 50.6771C47.9063 50.7656 47.8386 50.8385 47.75 50.8385C47.6667 50.8437 47.5938 50.776 47.5886 50.6875C47.5261 48.9166 47.4375 47.1562 47.2448 45.4062C47.1198 44.25 46.9532 43.0885 46.7032 41.9375C46.4428 40.6927 46.1042 39.4531 45.7292 38.2239C45.1615 36.3698 44.5105 34.5364 43.8907 32.7396C43.4844 31.5729 43.1355 30.3593 42.7136 29.1875C42.5313 28.6875 42.3386 28.1927 42.125 27.7083C41.9063 27.2239 41.6719 26.7396 41.4323 26.2656C40.4792 24.3385 39.4063 22.4583 38.4948 20.5156C38.2865 20.0625 38.0834 19.5989 37.8542 19.1458C37.7084 18.8541 37.5521 18.5625 37.3698 18.2864C37.2709 18.1354 36.823 17.7916 36.7292 17.5937C36.6667 17.4635 36.6875 17.3541 36.7709 17.2916C36.8073 17.2604 36.875 17.2239 36.9844 17.2291C37.0678 17.2239 37.1355 17.2916 37.1407 17.375C37.1459 17.4531 37.0886 17.5156 37.0157 17.5312ZM37.0105 17.5312C37.0053 17.5312 37 17.5312 37 17.5312C36.9844 17.5312 36.9636 17.5364 36.9688 17.5416C36.974 17.5625 36.9948 17.5521 37.0105 17.5312ZM37.0105 17.526C37.0417 17.4896 37.0625 17.4271 37.0313 17.4427C36.9948 17.4635 36.9948 17.4948 37.0105 17.526Z" fill="#010101"></path><path fill-rule="evenodd" clip-rule="evenodd" d="M57.542 18.349C57.5576 18.3073 57.5941 18.2709 57.6357 18.2552C57.7034 18.2136 57.7711 18.1771 57.8493 18.1511C58.1097 18.0573 58.4326 18.0469 58.7451 18.0782C59.167 18.1198 59.5732 18.2709 59.8076 18.5157C60.1513 18.875 60.3597 19.5886 60.3024 20.2188C60.2607 20.6719 60.0888 21.0782 59.7451 21.2969C59.5003 21.4479 59.0159 21.5729 58.5628 21.6354C58.2243 21.6771 57.9066 21.6771 57.6982 21.5938C57.3857 21.4479 57.0941 21.0573 56.9222 20.6094C56.7555 20.1771 56.693 19.6979 56.7659 19.3854C56.8128 19.2032 56.8909 19.0365 57.0003 18.8854C57.1513 18.6823 57.3441 18.5 57.542 18.349ZM58.1878 18.5313C58.1774 18.5417 58.1618 18.5521 58.1461 18.5573C58.1149 18.5625 58.0784 18.5625 58.0524 18.5521C58.0211 18.5573 57.9951 18.5625 57.9691 18.5677C57.9066 18.5834 57.8441 18.5834 57.792 18.599C57.7763 18.6094 57.7555 18.6146 57.7347 18.6146C57.5784 18.7552 57.4222 18.9115 57.3024 19.0886C57.2243 19.2032 57.167 19.3282 57.1357 19.4688C57.0836 19.724 57.1618 20.1094 57.2972 20.4636C57.4326 20.8125 57.6201 21.1407 57.8649 21.2604C58.0524 21.3594 58.3857 21.3698 58.7138 21.3177C59.0576 21.2657 59.3857 21.1407 59.568 21.0209C59.8857 20.8125 59.9847 20.375 59.9586 19.9375C59.9326 19.4948 59.7607 19.0417 59.5107 18.8073C59.3284 18.6302 59.0211 18.5469 58.7034 18.5209C58.5316 18.5052 58.3545 18.5104 58.1878 18.5313Z" fill="#010101"></path><path fill-rule="evenodd" clip-rule="evenodd" d="M56.823 20.8125C56.797 20.8229 56.7501 20.875 56.7137 20.9063C56.5991 21 56.4845 21.125 56.4428 21.1667C56.2449 21.3438 56.0522 21.5313 55.8699 21.724C55.5939 22.0156 55.3334 22.3229 55.0678 22.6302C54.4324 23.3698 53.8387 24.1615 53.4376 25.0313C53.172 25.6042 53.0001 26.2135 52.9584 26.8698C52.9376 27.2031 52.922 27.6094 53.047 27.9479C53.1199 28.151 53.2397 28.3281 53.4428 28.4479C53.823 28.6719 54.2241 28.6719 54.5887 28.5365C54.9689 28.3906 55.3074 28.099 55.5418 27.7604C55.6772 27.5677 55.7709 27.375 55.8439 27.1719C55.9637 26.8542 56.0418 26.5208 56.1616 26.1771L57.0887 23.1875L57.5678 21.9479C57.5834 21.9115 57.6095 21.7031 57.6668 21.5885C57.7084 21.5052 57.7709 21.4531 57.8334 21.4375C57.922 21.4167 58.0157 21.4635 58.0418 21.5521C58.0574 21.625 58.0314 21.6927 57.9793 21.7344C58.0418 21.7969 57.9116 22.0313 57.9012 22.0625L57.4324 23.3021L56.4793 26.2917C56.3595 26.6354 56.2762 26.9688 56.1512 27.2917C56.0678 27.5156 55.9637 27.7344 55.8126 27.9479C55.5418 28.3438 55.1459 28.6719 54.7084 28.8438C54.2501 29.026 53.7449 29.0313 53.2605 28.7604C52.9741 28.5938 52.8022 28.349 52.698 28.0729C52.5626 27.6875 52.5626 27.2292 52.5887 26.8438C52.6303 26.1458 52.8126 25.4948 53.0991 24.8802C53.5105 23.9792 54.1303 23.1563 54.7866 22.3906C55.0574 22.0781 55.323 21.7708 55.6095 21.474C55.797 21.276 55.9949 21.0781 56.2032 20.8958C56.2762 20.8333 56.4949 20.5781 56.6772 20.5104C56.8595 20.4427 57.0262 20.4688 57.0887 20.6771C57.1199 20.75 57.0887 20.8385 57.0105 20.875C56.9428 20.901 56.8595 20.875 56.823 20.8125ZM56.823 20.8125C56.8334 20.8229 56.8387 20.8333 56.8387 20.8229C56.8387 20.8125 56.8334 20.8125 56.823 20.8125Z" fill="#010101"></path><path fill-rule="evenodd" clip-rule="evenodd" d="M58.0107 21.75C58.0732 21.8802 57.7868 22.3437 57.7764 22.3802C57.7139 22.6354 57.6722 22.8906 57.6357 23.1458C57.5993 23.4062 57.5785 23.6666 57.5524 23.9323C57.4899 24.6146 57.3805 25.3958 57.3753 26.151C57.3753 26.6458 57.4222 27.125 57.568 27.5625C57.5993 27.6666 57.6462 27.7552 57.6982 27.8437C57.8337 28.0729 58.0107 28.2812 58.141 28.5208C58.2555 28.7291 58.4378 29.0833 58.667 29.3385C58.8024 29.4896 58.9482 29.6041 59.1201 29.5989C59.6826 29.5781 60.0628 29.2812 60.2972 28.8594C60.5316 28.4375 60.6201 27.8906 60.5993 27.3854C60.5837 26.9791 60.5212 26.5833 60.4274 26.1927C60.167 25.0833 59.667 24.0156 59.3285 22.9166C59.1826 22.4271 59.068 21.9375 59.0055 21.4375C58.9951 21.3437 59.0576 21.2604 59.1514 21.2448C59.2451 21.2344 59.3285 21.3021 59.3441 21.3906C59.4066 21.8125 59.516 22.2187 59.6357 22.6302C59.9274 23.5937 60.318 24.5416 60.5993 25.5052C60.7764 26.1198 60.9066 26.7396 60.9222 27.3698C60.9482 28.0573 60.7816 28.8021 60.3753 29.3021C60.0837 29.6562 59.6774 29.8958 59.1305 29.9166C58.9274 29.9271 58.7347 29.8385 58.5576 29.6927C58.2451 29.4219 57.9899 28.9479 57.8389 28.6875C57.7087 28.4531 57.5316 28.25 57.391 28.0208C57.3232 27.9166 57.2712 27.8021 57.2243 27.6771C57.068 27.2083 57.0107 26.6823 57.0107 26.1458C57.0107 25.3802 57.1253 24.5937 57.1878 23.901C57.2191 23.5729 57.2555 23.2552 57.3076 22.9323C57.3441 22.7187 57.391 22.5052 57.4482 22.2916C57.4639 22.25 57.6357 21.7031 57.7295 21.5625C57.792 21.4739 57.8701 21.4583 57.9066 21.4583C57.9587 21.4635 58.0368 21.4896 58.0628 21.5989C58.0732 21.6562 58.0524 21.7135 58.0107 21.75Z" fill="#010101"></path><path fill-rule="evenodd" clip-rule="evenodd" d="M59.417 21.6197C59.4639 21.7083 59.5785 21.8385 59.5993 21.8958L60.2347 23.5781C60.542 24.3437 60.8285 25.151 61.2399 25.875C61.5108 26.3437 61.8337 26.776 62.2608 27.1406C62.516 27.3593 62.8441 27.5833 63.1878 27.6458C63.391 27.6875 63.6045 27.6614 63.8076 27.5312C64.141 27.3125 64.4118 27.0052 64.5576 26.651C64.6983 26.3125 64.7191 25.927 64.5576 25.5468C64.4951 25.4062 64.4066 25.2812 64.3076 25.1562C64.1462 24.9583 63.9587 24.7708 63.8076 24.5833C63.4691 24.1562 63.1045 23.7552 62.7295 23.3697C62.016 22.6354 61.2451 21.9687 60.5368 21.2239C60.3597 21.0364 60.1931 20.8437 60.0264 20.6458C59.9639 20.5781 59.9691 20.4739 60.0368 20.4114C60.1045 20.3489 60.2087 20.3541 60.2712 20.4218C60.4535 20.6041 60.6358 20.7812 60.8128 20.9583C61.542 21.677 62.2764 22.3854 62.9847 23.125C63.3597 23.5208 63.7295 23.9375 64.0733 24.375C64.2503 24.6041 64.4691 24.8177 64.6462 25.0625C64.7295 25.177 64.8024 25.2916 64.8545 25.4218C65.0524 25.8854 65.0264 26.3541 64.8545 26.776C64.6826 27.1822 64.3701 27.5416 63.9795 27.7968C63.7035 27.9739 63.4118 28.0104 63.1306 27.9635C62.7295 27.8906 62.3441 27.6406 62.0472 27.3906C61.5837 27.0052 61.2347 26.5416 60.9431 26.0416C60.516 25.3072 60.2243 24.4895 59.9066 23.7083L59.2764 22.0052C59.2556 21.9322 59.1826 21.8072 59.141 21.7031C59.0993 21.5989 59.0941 21.5052 59.1149 21.4531C59.1514 21.3697 59.2243 21.2812 59.4066 21.3281C59.4899 21.3489 59.5368 21.4322 59.5212 21.5104C59.5056 21.5677 59.4639 21.6041 59.417 21.6197ZM59.3962 21.5833C59.4014 21.5833 59.4014 21.5781 59.4014 21.5781C59.4066 21.5677 59.4431 21.526 59.4222 21.5312C59.3962 21.5364 59.391 21.5572 59.3962 21.5833Z" fill="#010101"></path><path fill-rule="evenodd" clip-rule="evenodd" d="M60.6197 20.5885C60.7603 20.6458 61.0416 20.9479 61.0832 20.9791C61.3176 21.1614 61.552 21.3489 61.7707 21.5416C61.9947 21.7343 62.2082 21.9375 62.4218 22.151L63.3228 22.9895C64.0155 23.5885 65.1874 24.151 66.1822 24.0833C66.8228 24.0416 67.3853 23.7239 67.6666 22.9583C67.8176 22.5468 67.7082 22.2447 67.4739 22.026C67.0832 21.6614 66.3801 21.4947 65.8957 21.3697C64.9999 21.1354 64.1666 20.7031 63.2916 20.401C63.078 20.3281 62.8645 20.2604 62.6457 20.2031C62.1145 20.0729 61.4843 20.1145 60.927 19.9895C60.6562 19.927 60.401 19.8333 60.1718 19.677C60.0885 19.625 60.0676 19.5156 60.1197 19.4322C60.1718 19.3489 60.2864 19.3229 60.3697 19.375C60.5624 19.4947 60.7812 19.552 61.0051 19.5937C61.578 19.7031 62.2082 19.6822 62.7447 19.8125C62.9791 19.8697 63.203 19.9427 63.427 20.0208C64.2916 20.3281 65.1093 20.7708 65.9895 21.0104C66.526 21.1614 67.2864 21.375 67.7082 21.7864C68.026 22.0937 68.177 22.5 67.9635 23.0677C67.6353 23.9739 66.9687 24.3489 66.203 24.4062C65.1301 24.4843 63.8489 23.8958 63.0989 23.25L62.177 22.3906C61.9739 22.1822 61.7655 21.9843 61.552 21.7916C61.3332 21.5989 61.1145 21.4166 60.8853 21.2343C60.8228 21.1875 60.3228 20.8177 60.276 20.6875C60.2447 20.6041 60.2655 20.5416 60.3124 20.5C60.3385 20.4739 60.3853 20.4427 60.4739 20.4427C60.552 20.4479 60.6145 20.5104 60.6197 20.5885Z" fill="#010101"></path><path fill-rule="evenodd" clip-rule="evenodd" d="M65.167 20.6979C65.1722 20.6979 65.1774 20.7031 65.1774 20.7031C65.3128 20.75 65.6618 20.849 65.7139 20.8594C65.9534 20.9063 66.167 20.9167 66.3753 20.901C66.5889 20.8854 66.7972 20.8385 67.0368 20.7656C67.3232 20.6823 67.8128 20.5938 68.1722 20.3958C68.3805 20.2813 68.5472 20.1302 68.568 19.8958C68.5732 19.8125 68.568 19.724 68.5472 19.6354C68.5212 19.4896 68.4691 19.349 68.4222 19.2135C68.3857 19.125 68.3493 19.026 68.3076 18.9375C68.2659 18.849 68.2191 18.7604 68.167 18.6771C67.9587 18.3698 67.6826 18.1719 67.3701 18.0573C66.8805 17.8698 66.3076 17.8698 65.7712 17.9167C65.4274 17.9479 65.0889 18.0104 64.7503 18.0833C63.943 18.2552 63.1514 18.5052 62.3441 18.6771C61.9274 18.7604 61.4951 18.8281 61.0628 18.875C60.6357 18.9271 60.2087 18.9583 59.7868 18.9948C59.693 19.0104 59.6097 18.9427 59.5993 18.849C59.5889 18.7604 59.6514 18.6771 59.7451 18.6667C59.9222 18.6354 60.0993 18.599 60.2764 18.5781C60.6878 18.5156 61.1045 18.4792 61.5159 18.4167C61.7659 18.375 62.0159 18.3333 62.2607 18.2813C63.068 18.1198 63.8597 17.8646 64.6722 17.7083C65.0264 17.6354 65.3857 17.5885 65.7503 17.5729C66.3284 17.5365 66.9482 17.5573 67.4847 17.7656C67.8493 17.9115 68.1826 18.1406 68.4274 18.5052C68.4795 18.5781 68.5264 18.6615 68.568 18.7396C68.6253 18.8594 68.6774 18.9844 68.7243 19.1094C68.7816 19.2552 68.8389 19.4115 68.8701 19.5729C68.8909 19.6875 68.9066 19.8073 68.8962 19.9271C68.8701 20.2708 68.6462 20.5156 68.3389 20.6927C67.9587 20.9063 67.443 21.0052 67.1357 21.099C66.8701 21.1771 66.6357 21.2292 66.4014 21.2448C66.1618 21.2552 65.9222 21.2396 65.6462 21.1823C65.5889 21.1667 65.2191 21.0417 65.0732 20.9844C64.8545 20.8958 64.9951 20.6771 65.0472 20.6667C65.0941 20.6615 65.1357 20.6719 65.167 20.6979Z" fill="#010101"></path><path fill-rule="evenodd" clip-rule="evenodd" d="M59.6045 18.9323C59.5629 18.8958 59.5472 18.8333 59.5681 18.776C59.5941 18.6979 59.6827 18.6562 59.7608 18.6875C59.7712 18.6875 59.7816 18.6979 59.7972 18.7135C59.8754 18.6562 59.9431 18.5729 60.0264 18.5104C60.0889 18.4687 60.1566 18.4323 60.2347 18.4062L61.7556 17.9635C62.641 17.7031 63.5316 17.4791 64.3233 17.0729C64.8337 16.8177 65.3024 16.4791 65.7035 16.0052L66.1097 15.4114C66.3545 15.0364 66.7764 14.401 66.8702 13.8177C66.9222 13.4687 66.8493 13.1354 66.4899 12.9323C66.4066 12.8802 66.3077 12.8698 66.2035 12.875C66.0212 12.875 65.8285 12.9323 65.6774 12.9687C65.2972 13.0729 64.8754 13.2448 64.4743 13.4583C64.0733 13.6666 63.6983 13.9166 63.3962 14.1666C63.0108 14.4896 62.6149 14.8177 62.2347 15.1562C61.9795 15.3802 61.7347 15.6093 61.4952 15.8437C61.3285 16.0156 61.1722 16.1927 61.0264 16.3802C60.6722 16.8229 60.3597 17.2968 59.9952 17.7396C59.8389 17.9218 59.6202 18.0625 59.4639 18.2448C59.4066 18.3073 59.3597 18.375 59.3285 18.4531C59.2972 18.5468 59.1931 18.5989 59.0941 18.5625C59.0004 18.5312 58.9535 18.4271 58.9847 18.3333C59.0264 18.2135 59.0889 18.1041 59.1722 18.0052C59.3233 17.8177 59.5368 17.6718 59.6879 17.4896C60.0577 17.0521 60.3702 16.5781 60.7243 16.1354C60.8806 15.9427 61.042 15.7552 61.2243 15.5781C61.4691 15.3333 61.7243 15.1041 61.9847 14.875C62.3702 14.5364 62.7712 14.2135 63.167 13.8958C63.4899 13.6302 63.8962 13.375 64.3181 13.1614C64.7452 12.9427 65.1931 12.7656 65.5941 12.6666C65.7712 12.6198 65.9899 12.5625 66.1931 12.5625C66.3545 12.5573 66.5108 12.5833 66.6462 12.6614C67.141 12.9375 67.266 13.3854 67.1931 13.8698C67.1045 14.4948 66.667 15.1979 66.4118 15.6041L65.9795 16.2343C65.5524 16.7552 65.042 17.1198 64.4899 17.4062C63.6827 17.8177 62.7712 18.0416 61.8597 18.3125L60.3441 18.7343L59.8441 19.0468C59.7816 19.0729 59.7191 19.0677 59.667 19.0208C59.6514 19.0104 59.6149 18.9531 59.6045 18.9323Z" fill="#010101"></path><path fill-rule="evenodd" clip-rule="evenodd" d="M59.3858 17.8594C59.4119 17.7969 59.4692 17.6146 59.49 17.5677C59.6046 17.2865 59.7244 17.0104 59.8598 16.75C59.9952 16.4792 60.1462 16.2187 60.3181 15.9635C60.839 15.1979 61.2765 14.4062 61.5525 13.5781C61.8285 12.75 61.9431 11.8854 61.8181 10.9531C61.7921 10.776 61.7817 10.599 61.7608 10.4219C61.7452 10.3125 61.7244 10.2083 61.6879 10.1094C61.5785 9.79166 61.2556 9.59895 60.9015 9.5C60.5317 9.39583 60.115 9.39583 59.8233 9.5C59.615 9.57291 59.4223 9.71875 59.2608 9.89583C59.089 10.0729 58.9483 10.2865 58.8598 10.4844C58.5733 11.125 58.4015 11.8229 58.2869 12.5417C58.1202 13.625 58.0994 14.7552 58.0733 15.7865C58.0577 16.2604 58.016 16.7448 57.99 17.224C57.9744 17.5365 57.964 17.8437 57.99 18.151C58.0004 18.2448 57.9327 18.3333 57.8337 18.349C57.74 18.3594 57.6515 18.2917 57.6358 18.1927C57.5994 17.9479 57.5733 17.7031 57.5681 17.4531C57.5629 16.8958 57.641 16.3281 57.6567 15.776C57.6931 14.724 57.7348 13.5833 57.9171 12.4844C58.0421 11.7344 58.2296 11.0052 58.5317 10.3385C58.641 10.1094 58.8025 9.86458 59.0004 9.65625C59.2087 9.4375 59.4483 9.26041 59.7035 9.17187C60.1254 9.02083 60.7504 9.04166 61.2452 9.25C61.6046 9.40104 61.8962 9.65104 62.0212 9.99479C62.0525 10.0885 62.0733 10.1823 62.0942 10.2812C62.1306 10.4844 62.141 10.7031 62.1671 10.901C62.3077 11.8958 62.1931 12.8177 61.9015 13.6927C61.6202 14.5521 61.1671 15.375 60.6254 16.1719C60.4587 16.4115 60.3181 16.6615 60.1827 16.9115C60.0473 17.1719 59.9223 17.4323 59.8025 17.7031C59.7608 17.7812 59.6879 18.026 59.5942 18.1094C59.5108 18.1823 59.4171 18.2031 59.3181 18.1406C59.2452 18.099 59.2244 18.0052 59.266 17.9323C59.2921 17.8906 59.339 17.8646 59.3858 17.8594Z" fill="#010101"></path><path fill-rule="evenodd" clip-rule="evenodd" d="M57.7087 18.4062C57.6514 18.4635 57.5577 18.4635 57.4952 18.4062C57.4379 18.3489 57.4379 18.2552 57.4952 18.1927C57.5473 18.1406 57.5681 18.0677 57.5837 17.9896C57.6098 17.8333 57.6045 17.6614 57.615 17.5312C57.6514 17.2187 57.667 16.9062 57.667 16.5937C57.6618 16.2812 57.6462 15.9687 57.615 15.6562C57.5577 15.0208 57.4639 14.4114 57.3233 13.8125C57.1879 13.2135 57.0056 12.625 56.7608 12.0364C56.6306 11.7031 56.4743 11.3333 56.2608 11.0156C56.1306 10.8125 55.9691 10.6302 55.7764 10.4948C55.2556 10.1146 54.6931 10.2031 54.2452 10.5208C53.7868 10.8437 53.4483 11.3958 53.3754 11.9583C53.3389 12.2344 53.3754 12.4739 53.4431 12.6979C53.5577 13.0573 53.766 13.3802 53.9639 13.7656C54.1462 14.1302 54.3441 14.4739 54.5525 14.8125C54.7608 15.1562 54.9795 15.4896 55.2191 15.8177C55.5108 16.2448 55.8233 16.6302 56.1462 17.0052C56.641 17.5833 57.1618 18.1302 57.6879 18.7031C57.7556 18.7708 57.7504 18.8854 57.6827 18.9479C57.6098 19.0156 57.5004 19.0104 57.4327 18.9427C56.8858 18.375 56.3441 17.8437 55.8441 17.2708C55.5056 16.8854 55.1879 16.4844 54.8858 16.0469C54.6514 15.7031 54.4275 15.3646 54.2191 15.0104C54.0108 14.6614 53.8181 14.3021 53.6358 13.9271C53.4431 13.5156 53.2452 13.1666 53.1358 12.7864C53.0577 12.5208 53.0264 12.2448 53.0733 11.9166C53.1514 11.2708 53.5316 10.6302 54.0525 10.2552C54.6098 9.84893 55.3181 9.73435 55.99 10.1979C56.2191 10.3594 56.4066 10.5729 56.5681 10.8125C56.7973 11.151 56.9639 11.5416 57.1098 11.8958C57.3598 12.5052 57.5525 13.1094 57.6931 13.7239C57.8389 14.3385 57.9275 14.9687 57.9848 15.6198C58.016 15.9479 58.0264 16.2708 58.0264 16.5937C58.0264 16.9166 58.0056 17.2448 57.9639 17.5729C57.9379 17.7344 57.9327 17.9583 57.8702 18.1406C57.8337 18.2448 57.7816 18.3385 57.7087 18.4062Z" fill="#010101"></path><path fill-rule="evenodd" clip-rule="evenodd" d="M56.7136 18.651C56.6928 18.6041 56.6563 18.5416 56.6459 18.5312L56.2032 18.0208C56.0209 17.8021 55.8438 17.5833 55.6771 17.3594C55.5105 17.1354 55.349 16.901 55.1928 16.6666C55.0521 16.4583 54.9167 16.2448 54.7709 16.0416C54.6771 15.9062 54.5782 15.776 54.4688 15.651C54.3698 15.5416 54.2605 15.4323 54.1511 15.3281C54.0417 15.2239 53.9271 15.1198 53.8073 15.026C53.2813 14.5989 52.3542 14.0312 51.5 13.9166C50.9532 13.8437 50.4375 13.9635 50.1094 14.4739C49.948 14.7239 49.875 15.0989 49.8855 15.4739C49.8907 15.8541 49.974 16.2291 50.1407 16.4687C50.2344 16.5989 50.349 16.7135 50.4792 16.8177C50.6875 16.9844 50.9219 17.1146 51.1355 17.2344C51.5313 17.4635 51.9532 17.6875 52.3855 17.8646C52.6667 17.9844 52.9584 18.0885 53.25 18.1562C53.8646 18.3021 54.4428 18.4166 55.0157 18.5781C55.4011 18.6927 55.7865 18.8281 56.1771 19.0104C56.375 19.0989 56.5834 19.1666 56.7657 19.2708C56.9063 19.3489 57.0365 19.4427 57.1459 19.5573C57.2188 19.6198 57.224 19.7291 57.1563 19.7969C57.0938 19.8646 56.9896 19.8698 56.9167 19.8073C56.8438 19.75 56.7605 19.7083 56.6771 19.6666C56.4636 19.5573 56.2292 19.4791 56.0053 19.3802C55.6303 19.2135 55.2657 19.0885 54.9011 18.9844C54.3334 18.8229 53.7605 18.7083 53.1511 18.5625C52.8386 18.4844 52.5261 18.375 52.224 18.2448C51.7761 18.0521 51.3438 17.8177 50.9375 17.5729C50.7136 17.4375 50.4636 17.2864 50.2448 17.1041C50.0938 16.9739 49.9532 16.8281 49.849 16.6666C49.6511 16.375 49.5469 15.9271 49.5417 15.4844C49.5365 15.0364 49.6303 14.5885 49.8178 14.2916C50.224 13.6406 50.8594 13.4739 51.5469 13.5573C52.4688 13.6771 53.4792 14.276 54.0521 14.7291C54.1771 14.8333 54.3021 14.9375 54.4167 15.0521C54.5365 15.1614 54.6511 15.2812 54.7605 15.4062C54.875 15.5364 54.9792 15.6771 55.0834 15.8229C55.2344 16.0312 55.3698 16.25 55.5105 16.4635C55.6563 16.6979 55.8073 16.9271 55.9688 17.151C56.125 17.3698 56.2917 17.5885 56.4688 17.8021L56.8959 18.3333C56.9167 18.3594 56.9948 18.5104 57.0209 18.5781C57.0886 18.776 56.8698 18.8229 56.823 18.8021C56.8125 18.7969 56.7813 18.7812 56.7396 18.7291C56.724 18.7031 56.7136 18.6771 56.7136 18.651Z" fill="#010101"></path><path fill-rule="evenodd" clip-rule="evenodd" d="M56.4897 19.6458C56.2502 19.6354 56.0106 19.6146 55.771 19.5781C55.2658 19.5104 54.7554 19.3958 54.2606 19.2916L52.9585 18.9062C52.4689 18.776 51.9168 18.6979 51.3752 18.7187C50.8387 18.7344 50.3127 18.8385 49.8647 19.0677C49.6668 19.1719 49.4533 19.2916 49.2918 19.4531C49.1929 19.5521 49.1147 19.6614 49.0731 19.7969C49.0418 19.8906 49.0314 19.9948 49.0314 20.1041C49.0262 20.2812 49.047 20.4635 49.0627 20.6198C49.0731 20.7291 49.0939 20.8281 49.1252 20.9323C49.1512 21.0364 49.1929 21.1354 49.2345 21.2396C49.4585 21.7239 49.7606 21.9791 50.1356 22.0781C50.5262 22.1875 50.9741 22.1406 51.4689 22.0416C52.0783 21.9219 52.6356 21.7604 53.1825 21.5677C53.7293 21.375 54.271 21.151 54.8335 20.8906C55.3179 20.6719 55.8491 20.3385 56.396 20.1614C56.5991 20.0989 56.8075 20.0312 57.0158 20.0364C57.0731 20.0416 57.1252 20.0521 57.1772 20.0625C57.271 20.0625 57.3491 20.1406 57.3491 20.2291C57.3491 20.3229 57.271 20.401 57.1772 20.401C57.146 20.4062 57.1252 20.4219 57.0939 20.4323C56.8335 20.4844 56.5679 20.5312 56.3127 20.6406C55.8595 20.8281 55.422 21.0989 55.0158 21.2864C54.4377 21.5521 53.8856 21.7812 53.3179 21.9687C52.7502 22.151 52.1668 22.2969 51.5366 22.4062C50.8543 22.5208 50.2397 22.5364 49.7502 22.2812C49.4272 22.1094 49.1512 21.8281 48.9533 21.3646C48.9012 21.25 48.8595 21.1354 48.8231 21.0208C48.7866 20.901 48.7606 20.7812 48.745 20.6562C48.7241 20.4896 48.6981 20.2916 48.6929 20.1041C48.6929 19.9635 48.7033 19.8229 48.7397 19.7031C48.7918 19.5104 48.896 19.3437 49.0314 19.2031C49.2137 19.0104 49.4585 18.8594 49.6877 18.7396C50.1825 18.4791 50.7658 18.3489 51.3647 18.3281C51.9429 18.3073 52.5314 18.3854 53.0575 18.526L54.3439 18.9166C54.8283 19.026 55.3283 19.1406 55.8231 19.2239C56.1512 19.276 56.4793 19.3125 56.8075 19.3177C56.9272 19.3229 56.9637 19.3906 56.9793 19.4271C56.995 19.4687 57.0054 19.5312 56.9533 19.5937C56.9325 19.6198 56.7814 19.6979 56.7241 19.7291C56.6564 19.776 56.5627 19.7604 56.5106 19.6927C56.5054 19.6771 56.495 19.6614 56.4897 19.6458ZM56.672 19.4271C56.7033 19.4114 56.7241 19.3906 56.7137 19.375C56.6929 19.3489 56.6772 19.3958 56.672 19.4271Z" fill="#010101"></path><path fill-rule="evenodd" clip-rule="evenodd" d="M36.9847 17.5C36.9743 17.5469 36.9431 17.5885 36.9014 17.6094C36.8858 17.625 36.8753 17.6406 36.8649 17.6562C36.8128 17.7187 36.7191 17.7344 36.6514 17.6823C36.5889 17.6302 36.5733 17.5364 36.6253 17.4739C36.641 17.4531 36.6514 17.4323 36.667 17.4114C36.6253 16.9635 36.516 16.5312 36.3806 16.1042C36.1618 15.4219 35.8701 14.75 35.6097 14.0833C35.1774 12.9427 34.6931 11.7969 34.1566 10.6719C33.6149 9.55728 33.0212 8.46353 32.3493 7.44269C31.8962 6.75519 30.8545 5.70311 30.542 4.70311C30.3806 4.19269 30.3962 3.69269 30.7399 3.23436C30.9118 2.99998 31.1358 2.89061 31.3806 2.85415C31.7139 2.80207 32.0889 2.90623 32.4014 3.04686C32.9743 3.31769 33.4483 3.68228 33.8545 4.11978C34.2503 4.54686 34.5837 5.04165 34.8858 5.56249C35.5316 6.67707 36.2243 7.85936 36.7503 9.09374C37.1045 9.92707 37.3858 10.7864 37.5264 11.6614C37.5785 12 37.6045 12.3437 37.6097 12.6823C37.6149 13.1771 37.5889 13.6771 37.5889 14.1823C37.5889 14.8177 37.6149 15.5989 37.4639 16.3125C37.3753 16.7448 37.2243 17.1562 36.9847 17.5ZM36.9274 16.8802C37.0003 16.6771 37.0472 16.4635 37.0889 16.2448C37.2139 15.5469 37.2087 14.7969 37.2139 14.1771C37.2191 13.6771 37.2503 13.1823 37.2451 12.6875C37.2451 12.3646 37.2243 12.0417 37.1774 11.7135C37.0368 10.8698 36.766 10.0417 36.417 9.23436C35.891 8.01561 35.1983 6.85415 34.5524 5.75519C34.266 5.25519 33.9431 4.79165 33.5681 4.3854C33.1931 3.98436 32.766 3.64061 32.2399 3.39582C31.9899 3.27082 31.6983 3.17186 31.4274 3.20311C31.2712 3.21874 31.1201 3.28644 31.0003 3.43228C30.6253 3.91665 30.7191 4.47394 30.9899 5.02603C31.4066 5.86978 32.2347 6.69269 32.6201 7.26561C33.3128 8.29165 33.9326 9.3854 34.4899 10.5104C35.0472 11.6354 35.5368 12.7969 35.9743 13.9479C36.2295 14.625 36.5264 15.3021 36.7347 16C36.8181 16.2864 36.8858 16.5781 36.9274 16.8802Z" fill="#010101"></path><path fill-rule="evenodd" clip-rule="evenodd" d="M33.3284 8.73956C33.318 8.82289 33.245 8.88539 33.1617 8.88018C33.0784 8.86976 33.0159 8.80206 33.0263 8.71872C33.0315 8.61456 32.9742 8.49997 32.9013 8.38539C32.719 8.08851 32.4065 7.78122 32.2502 7.56768C31.7763 6.91664 31.1669 6.3333 30.4898 5.84372C29.818 5.35414 29.068 4.9583 28.3075 4.7031C27.9534 4.5833 27.3648 4.44268 26.8752 4.5156C26.5732 4.55726 26.3075 4.67706 26.1982 4.95831C26.1409 5.09893 26.1461 5.24997 26.1825 5.39581C26.2398 5.64581 26.3805 5.8906 26.495 6.08331C26.7294 6.4531 27.0419 6.7656 27.3857 7.04685C27.9169 7.47914 28.5263 7.84372 29.0471 8.24476C29.818 8.83851 30.5575 9.46351 31.2555 10.1354C31.9534 10.8073 32.6096 11.526 33.2138 12.2916C34.1513 13.4843 34.9742 14.776 35.8648 16.0104C36.245 16.5312 36.6357 17.0468 37.0575 17.5364C37.12 17.6093 37.1148 17.7187 37.0419 17.776C36.969 17.8385 36.8648 17.8333 36.8023 17.7604C36.3648 17.2656 35.9586 16.75 35.568 16.2187C34.6721 15 33.8596 13.7031 32.9221 12.5156C32.3336 11.7552 31.693 11.0521 31.0107 10.3854C30.3284 9.71872 29.6096 9.08851 28.8492 8.49476C28.3284 8.08851 27.7242 7.71351 27.1982 7.27601C26.8284 6.97393 26.495 6.63539 26.245 6.23956C26.1096 6.02081 25.9534 5.74476 25.8805 5.46872C25.8284 5.26039 25.8232 5.04685 25.8961 4.84893C26.0471 4.44268 26.4013 4.24476 26.8232 4.17706C27.3648 4.09372 28.0263 4.23956 28.4169 4.36976C29.219 4.63539 30.0002 5.04685 30.7034 5.55726C31.4065 6.07289 32.0315 6.69268 32.5211 7.36976C32.6773 7.59372 32.995 7.91664 33.1773 8.22393C33.2815 8.40622 33.344 8.5833 33.3284 8.73956Z" fill="#010101"></path><path fill-rule="evenodd" clip-rule="evenodd" d="M36.7399 17.3229C36.7451 17.4062 36.6826 17.4791 36.5993 17.4844C36.5159 17.4948 36.443 17.4323 36.4378 17.3489C36.4326 17.276 36.3493 17.2239 36.2659 17.1614C36.094 17.0416 35.8753 16.9479 35.7711 16.875C35.344 16.5781 34.9222 16.276 34.4951 15.9844C34.2086 15.7969 33.9222 15.6094 33.6253 15.4375C32.9847 15.0573 32.3024 14.7031 31.6097 14.3802C30.917 14.0573 30.2034 13.7708 29.4951 13.5312C28.4482 13.1666 27.3284 12.8333 26.2972 12.3646C25.5888 12.0416 24.9222 11.651 24.344 11.1406C23.8597 10.7135 23.4795 10.0312 23.3597 9.33331C23.2399 8.60936 23.4013 7.88019 23.9951 7.37498C24.1045 7.27602 24.2347 7.2031 24.3753 7.14581C24.5628 7.06248 24.7763 7.00519 24.969 6.96352C25.3805 6.86977 25.8857 6.84373 26.3805 6.91665C26.8701 6.98956 27.3493 7.15623 27.7086 7.41665C27.7763 7.46352 27.792 7.55727 27.7451 7.62498C27.6982 7.6979 27.5993 7.71352 27.5315 7.66665C27.2034 7.4479 26.7711 7.3229 26.3284 7.26561C25.8805 7.20831 25.4222 7.22394 25.0472 7.31248C24.8753 7.34894 24.6878 7.39581 24.5159 7.47394C24.4118 7.51561 24.3128 7.5729 24.2295 7.64581C23.7347 8.06248 23.6149 8.67706 23.7138 9.27602C23.818 9.89061 24.1513 10.5 24.5784 10.875C25.1357 11.3646 25.7711 11.7396 26.443 12.0416C27.469 12.5104 28.5784 12.8229 29.6201 13.1771C30.3388 13.4271 31.0628 13.7187 31.7659 14.0469C32.469 14.375 33.1565 14.7396 33.8128 15.125C34.1149 15.3073 34.4066 15.5 34.693 15.6979C35.1201 15.9896 35.5368 16.2969 35.9638 16.5989C36.0888 16.6875 36.3649 16.8229 36.542 16.9791C36.6565 17.0885 36.7295 17.2031 36.7399 17.3229Z" fill="#010101"></path><path fill-rule="evenodd" clip-rule="evenodd" d="M36.797 17.4583C36.8283 17.4688 36.8543 17.4792 36.8855 17.4896C36.9949 17.5261 37.0939 17.5781 37.1876 17.6458C37.2658 17.6979 37.2866 17.7969 37.2345 17.875C37.1876 17.9479 37.0887 17.9688 37.0105 17.9219C36.9116 17.8646 36.8022 17.8386 36.6928 17.8125C36.5001 17.7761 36.3022 17.7552 36.1147 17.7292L34.6512 17.4844C33.448 17.3021 32.2397 17.0833 31.0314 16.9063C30.5158 16.8281 30.0001 16.7552 29.4793 16.6979C28.948 16.6354 28.4272 16.5677 27.9064 16.4844C27.3803 16.4011 26.8595 16.2969 26.3387 16.1771C25.6772 16.0208 24.8699 15.8021 24.1564 15.474C23.6564 15.2448 23.2033 14.9583 22.8647 14.6042C22.5835 14.3125 22.4064 13.9375 22.396 13.5833C22.3803 13.1979 22.5574 12.8333 23.0158 12.6042C23.3855 12.4271 23.7762 12.3438 24.172 12.3177C24.7397 12.2813 25.323 12.3542 25.8908 12.4115C27.0105 12.5208 28.1303 12.8021 29.2189 13.1979C30.8335 13.7865 32.3855 14.6094 33.797 15.4427L35.9741 16.7865C36.146 16.8906 36.4012 16.9844 36.5783 17.1354C36.6772 17.2188 36.7501 17.3177 36.7918 17.4375C36.7918 17.4427 36.797 17.4531 36.797 17.4583ZM36.4012 17.3906C36.3751 17.3698 36.3439 17.349 36.3126 17.3281C36.1512 17.224 35.948 17.1511 35.8074 17.0729L33.6199 15.75C32.2241 14.9271 30.6876 14.1198 29.0939 13.5469C28.0366 13.1615 26.948 12.8854 25.8595 12.7761C25.3074 12.724 24.7449 12.6458 24.198 12.6771C23.8439 12.6979 23.5001 12.7656 23.1668 12.9167C22.8439 13.0625 22.7033 13.3073 22.7033 13.5729C22.7033 13.8646 22.8543 14.1667 23.073 14.4063C23.3908 14.7344 23.8126 15 24.2762 15.2083C24.9793 15.5261 25.7658 15.724 26.4116 15.8646C26.9272 15.974 27.4428 16.0677 27.9585 16.1458C28.4741 16.224 28.9949 16.2865 29.521 16.3386C30.2137 16.4063 30.9116 16.5 31.6095 16.6094C32.646 16.7656 33.6772 16.9479 34.7085 17.1042L36.1772 17.3594C36.2501 17.3698 36.323 17.3802 36.4012 17.3906Z" fill="#010101"></path><path fill-rule="evenodd" clip-rule="evenodd" d="M35.9218 17.3385L36.5156 17.3177L36.7864 17.2812C36.8021 17.2812 36.9271 17.2812 36.9531 17.2969C37.0468 17.3437 37.0833 17.3906 37.0677 17.4375C37.0573 17.4687 37.0833 17.5521 36.9948 17.5677C36.9635 17.5885 36.9271 17.5937 36.8958 17.5885C36.8906 17.5833 36.8802 17.5833 36.8698 17.5833C36.8593 17.5781 36.8541 17.5781 36.8437 17.5729C36.8489 17.5781 36.8541 17.5833 36.8593 17.5885C36.8385 17.5937 36.8177 17.6042 36.8125 17.6042L36.7916 17.6094C36.8229 17.651 36.8333 17.7135 36.8021 17.7604C36.7187 17.9375 36.5781 17.8281 36.5468 17.7917C36.5468 17.7917 36.5416 17.776 36.5364 17.7604L36.4062 17.7396L35.9271 17.6667L35.7396 17.6771C35.3281 17.6927 34.9323 17.7187 34.5312 17.7552C34.1302 17.7864 33.7343 17.8281 33.3229 17.8698C33.1146 17.8958 32.901 17.9323 32.6927 17.9844C32.1979 18.0989 31.7031 18.2604 31.2031 18.3542C30.2604 18.5417 29.3229 18.6875 28.3802 18.75C27.4323 18.8177 26.4791 18.8073 25.5156 18.6719C25.3229 18.6458 25.125 18.6094 24.9323 18.5677C24.4896 18.4792 24.0521 18.3646 23.6093 18.276C23.5 18.2552 23.276 18.2344 23.1406 18.151C23.0364 18.0885 22.9687 18 22.9531 17.8802C22.9427 17.7292 22.9896 17.5833 23.0781 17.4583C23.1875 17.3021 23.3541 17.1719 23.4896 17.0885C23.7968 16.8906 24.1302 16.7344 24.4791 16.6198C24.8281 16.5 25.1875 16.4323 25.5573 16.401C26.5104 16.3333 27.4427 16.3385 28.3698 16.3854C29.3021 16.4271 30.2291 16.5208 31.1666 16.6354C31.7708 16.7031 32.3698 16.75 32.9687 16.8281C33.2239 16.8646 33.4843 16.901 33.7396 16.9531L35.8073 17.3177L35.9218 17.3385ZM36.8958 17.5885V17.5937C36.901 17.6198 36.8802 17.6094 36.8593 17.5885C36.8646 17.5833 36.8698 17.5833 36.8698 17.5833C36.8802 17.5885 36.8854 17.5885 36.8958 17.5885ZM34.4948 17.4271L33.6771 17.2917C33.4271 17.2448 33.1718 17.2083 32.9218 17.1771C32.3281 17.0989 31.7291 17.0573 31.1302 16.9844C30.1927 16.8802 29.276 16.7917 28.3541 16.7448C27.4375 16.6979 26.5208 16.6979 25.5833 16.7656C25.2448 16.7864 24.9114 16.8542 24.5937 16.9583C24.2708 17.0625 23.9635 17.2031 23.6771 17.3802C23.5885 17.4375 23.4843 17.5156 23.401 17.6094C23.3385 17.6771 23.2916 17.7552 23.2968 17.8489C23.3021 17.901 23.3802 17.8906 23.4375 17.9062C23.526 17.9271 23.6198 17.9375 23.6771 17.9479C24.1198 18.0417 24.5573 18.1562 25 18.25C25.1875 18.2917 25.375 18.3281 25.5625 18.3542C26.5 18.4896 27.4323 18.5052 28.3593 18.4427C29.2864 18.375 30.2135 18.2292 31.1406 18.0469C31.6406 17.9479 32.1302 17.7864 32.625 17.6719C32.8437 17.6198 33.0625 17.5781 33.2864 17.5521C33.6979 17.5052 34.0989 17.4635 34.4948 17.4271ZM36.7968 17.5312C36.7968 17.526 36.7968 17.526 36.7968 17.526C36.7812 17.5 36.7708 17.4739 36.7708 17.4479C36.7604 17.4844 36.7708 17.5104 36.7968 17.5312Z" fill="#010101"></path><path fill-rule="evenodd" clip-rule="evenodd" d="M37.0471 18.0469C36.9221 18.125 36.6409 18.1875 36.6253 18.1979C36.4013 18.3177 36.1826 18.4427 35.9638 18.5729C35.7503 18.7031 35.5419 18.8437 35.3336 18.9896C34.6878 19.4323 34.0367 19.7917 33.3649 20.0989C32.693 20.401 31.9951 20.6562 31.2555 20.8906C30.193 21.2344 29.0524 21.5208 27.9117 21.625C27.1357 21.6927 26.3649 21.6771 25.6044 21.5312C25.4586 21.5 25.3128 21.4687 25.1721 21.4323C25.0263 21.3906 24.8805 21.3489 24.7399 21.2917C24.6305 21.25 24.5211 21.2031 24.4274 21.1458C24.3544 21.0989 24.2867 21.0469 24.2242 20.9844C23.7242 20.4427 23.818 19.9531 24.1617 19.5521C24.5888 19.0625 25.4586 18.7031 25.9846 18.5364C26.0732 18.5104 26.1617 18.5521 26.1878 18.6354C26.219 18.7239 26.1721 18.8125 26.0888 18.8385C25.6096 19 24.818 19.3281 24.4326 19.7812C24.2034 20.0573 24.1513 20.3802 24.4899 20.7448C24.5367 20.7969 24.594 20.8385 24.6513 20.8698C24.719 20.9114 24.7919 20.9375 24.8649 20.9687C24.9951 21.0208 25.1253 21.0625 25.2607 21.0989C25.3961 21.1354 25.5367 21.1667 25.6721 21.1979C26.4013 21.3437 27.1409 21.3594 27.8805 21.2917C28.9951 21.1927 30.1044 20.8958 31.1461 20.5573C31.8753 20.3229 32.5576 20.0729 33.2138 19.776C33.8701 19.4792 34.5055 19.1354 35.1357 18.7031C35.3492 18.5573 35.568 18.4167 35.7919 18.2864C36.0107 18.151 36.2399 18.026 36.469 17.9062C36.5003 17.8906 36.9013 17.6927 37.0419 17.6614C37.1565 17.6354 37.2242 17.6979 37.2503 17.7344C37.2659 17.7656 37.3024 17.875 37.1669 18C37.1305 18.0312 37.0888 18.0469 37.0471 18.0469ZM36.9482 17.7917C36.9534 17.7917 36.9534 17.7917 36.9534 17.7864C36.969 17.776 36.9846 17.7604 36.9794 17.7552C36.9482 17.7344 36.943 17.7552 36.9482 17.7917Z" fill="#010101"></path><path fill-rule="evenodd" clip-rule="evenodd" d="M44.37 33.6458C44.3596 33.599 44.3388 33.526 44.3388 33.4948L44.3336 33.0208L44.2555 31.4115C44.1982 30.2292 44.2398 29.0469 44.2086 27.8646C44.1982 27.5729 44.1877 27.2812 44.1669 26.9844C44.0523 25.3073 43.7919 23.6302 43.6721 21.9479C43.62 21.2239 43.5888 20.4948 43.6148 19.7656C43.62 19.1302 43.7086 18.4948 43.8648 17.8698C43.9742 17.4115 44.1148 16.9531 44.2815 16.5104C44.443 16.0625 44.6357 15.6354 44.818 15.2083C45.0107 14.7396 45.2086 14.2187 45.4638 13.7552C45.5784 13.5469 45.7086 13.3489 45.844 13.1719C45.8909 13.1042 45.9846 13.0833 46.0523 13.1302C46.12 13.1719 46.1357 13.2656 46.094 13.3333C45.9065 13.6354 45.7659 13.9792 45.6252 14.3229C45.4846 14.6771 45.3492 15.0365 45.2242 15.3698C45.0627 15.7969 44.9065 16.2396 44.745 16.6823C44.5888 17.1146 44.4273 17.5469 44.2971 17.9896C44.1252 18.5781 43.9898 19.1719 43.9482 19.776C43.9169 20.4948 43.9377 21.2135 43.9846 21.9271C44.1044 23.6094 44.3857 25.2865 44.5055 26.9635C44.5419 27.4115 44.5575 27.8542 44.5627 28.3021C44.5784 29.3333 44.5471 30.3646 44.594 31.3958L44.6565 33.0156L44.6461 33.4948C44.6461 33.5469 44.6877 33.6458 44.6877 33.6979C44.6825 33.7448 44.6669 33.7865 44.6409 33.8125C44.6096 33.8437 44.5627 33.875 44.4898 33.8646C44.4065 33.8542 44.3492 33.7812 44.3544 33.7031C44.3596 33.6823 44.3648 33.6615 44.37 33.6458Z" fill="#010101"></path><path fill-rule="evenodd" clip-rule="evenodd" d="M46.0312 13.4948C45.9478 13.4739 45.9062 13.3906 45.927 13.3125C45.9478 13.2291 46.0364 13.1823 46.1145 13.2083C46.2187 13.2344 46.328 13.3489 46.4062 13.5156C46.526 13.7656 46.6041 14.125 46.6249 14.2396C46.6926 14.6041 46.7395 14.9791 46.7603 15.3541C46.7916 15.9062 46.7707 16.4687 46.7551 17.0156C46.7395 17.4531 46.7082 17.8854 46.6718 18.3229C46.6197 18.9739 46.5468 19.625 46.4739 20.276C46.4166 20.7969 46.3645 21.3229 46.2603 21.8385C46.1978 22.1875 46.1093 22.5312 45.9843 22.8698L45.026 25.0208C44.9426 25.25 44.8853 25.5052 44.8437 25.7708C44.776 26.1719 44.7499 26.5885 44.7343 26.9583C44.7239 27.2552 44.5364 27.4896 44.4739 27.7552C44.453 27.8385 44.453 27.9219 44.4843 28.0156C44.5103 28.0937 44.4687 28.1719 44.3957 28.1979C44.3228 28.2291 44.2395 28.1875 44.2135 28.1146C44.1562 27.9635 44.1562 27.8229 44.1874 27.6927C44.2395 27.4427 44.4218 27.2239 44.427 26.9479C44.4322 26.5677 44.453 26.1354 44.5103 25.7239C44.5468 25.4375 44.6041 25.1562 44.6874 24.9062C44.7655 24.6771 44.8541 24.4531 44.953 24.2291C45.1718 23.7344 45.4322 23.2448 45.6197 22.7344C45.7447 22.4166 45.8385 22.0937 45.9114 21.7656C46.0207 21.2604 46.0832 20.75 46.1457 20.2344C46.2082 19.6979 46.2655 19.1614 46.3124 18.6198C46.3541 18.0833 46.3853 17.5469 46.3957 17.0052C46.4062 16.5573 46.4062 16.0989 46.3957 15.6406C46.3853 15.1927 46.3645 14.7396 46.2916 14.3021C46.2812 14.2187 46.2447 14.0156 46.1822 13.8229C46.1562 13.7291 46.1197 13.6406 46.078 13.5729C46.0624 13.5364 46.052 13.5052 46.0312 13.4948Z" fill="#010101"></path><path fill-rule="evenodd" clip-rule="evenodd" d="M43.5212 30.3489C43.542 30.3958 43.5316 30.4531 43.4952 30.4948C43.4431 30.5625 43.3493 30.5677 43.2868 30.5156C43.2712 30.5052 43.24 30.4739 43.2295 30.4166C43.2191 30.3854 43.167 30.2864 43.1983 30.2708L42.9483 29.8854C42.7347 29.6302 42.4952 29.3802 42.2452 29.1354C42.1775 29.0729 42.1097 29.0104 42.042 28.9479C41.9014 28.8541 41.7504 28.776 41.5993 28.6719C40.9379 28.1927 40.1722 27.8698 39.365 27.6719C38.5577 27.4687 37.7139 27.3958 36.9066 27.4323C36.2452 27.4635 35.5941 27.6041 34.9431 27.6719C34.7712 27.6875 34.6045 27.7031 34.4327 27.7083C34.167 27.7135 33.8962 27.7083 33.6254 27.6979C33.2243 27.6771 32.8285 27.6458 32.4275 27.6198C31.9431 27.5937 31.4691 27.5312 31.0004 27.4375C30.5368 27.3385 30.0785 27.2083 29.6202 27.026L29.0212 26.7708C29.016 26.7656 28.9222 26.7396 28.8858 26.7239C28.7556 26.6666 28.766 26.5312 28.7712 26.5156C28.7712 26.4896 28.7972 26.4114 28.9014 26.3594C28.9483 26.3385 29.0785 26.3021 29.0889 26.3021L29.6097 26.0521C29.99 25.8541 30.3754 25.7083 30.7712 25.5885C31.3597 25.4114 31.9639 25.3021 32.5889 25.2135C33.1983 25.125 33.8545 25.1354 34.4952 25.2344C35.1306 25.3333 35.7556 25.5156 36.3181 25.7396L38.6254 26.8385C39.2347 27.0781 39.8858 27.2552 40.5004 27.5104C40.9222 27.6875 41.3233 27.9062 41.6879 28.1927C41.9535 28.4062 42.2243 28.651 42.4795 28.901C42.7347 29.1562 42.9743 29.4219 43.1931 29.6875C43.2504 29.7604 43.3025 29.8333 43.3545 29.9114C43.4014 29.9896 43.4431 30.0729 43.4847 30.1562C43.4952 30.1823 43.5681 30.3333 43.5212 30.3489ZM38.6202 27.1927C38.5785 27.1719 38.5368 27.1562 38.4952 27.1406C37.9431 26.9114 37.417 26.625 36.8806 26.3646C36.6514 26.2604 36.4222 26.1562 36.1879 26.0677C35.6462 25.8646 35.042 25.7135 34.4327 25.6198C33.8285 25.526 33.2139 25.4948 32.641 25.5677C32.1306 25.6302 31.6358 25.7031 31.1566 25.8281C30.6827 25.9531 30.2295 26.1302 29.7868 26.3802L29.417 26.5625L29.74 26.7187C30.1774 26.901 30.6202 27.0364 31.0681 27.1302C31.516 27.2291 31.9743 27.2812 32.4483 27.3125C32.8441 27.3333 33.24 27.3646 33.6358 27.3802C33.9014 27.3958 34.1618 27.3958 34.4222 27.3906C34.5837 27.3802 34.7452 27.3698 34.9066 27.3541C35.5629 27.2812 36.2191 27.1354 36.8858 27.1041C37.4587 27.0781 38.042 27.1094 38.6202 27.1927ZM29.1097 26.6719C29.0681 26.6823 29.0368 26.6927 29.0472 26.7135C29.0629 26.7552 29.0889 26.7187 29.1097 26.6719Z" fill="#010101"></path><path fill-rule="evenodd" clip-rule="evenodd" d="M47.6774 52.9271C47.6774 52.9375 47.6774 52.9479 47.6774 52.9583C47.6774 52.9479 47.6722 52.9375 47.6722 52.9323C47.6566 52.9583 47.6462 52.9843 47.667 53.0104C47.6462 53.0468 47.615 53.0833 47.5681 53.0937C47.49 53.1198 47.4066 53.0729 47.3806 52.9948C47.365 52.9583 47.4014 52.9114 47.4327 52.8698L47.0524 52.1614C46.6358 51.1146 46.0941 50.1718 45.5056 49.2604C44.6306 47.9062 43.641 46.6354 42.6722 45.2916C42.167 44.7448 41.5993 44.3281 41.0056 43.9739C40.042 43.3958 38.9952 42.9739 37.9222 42.4271C37.5837 42.25 37.266 42.0521 36.9639 41.8385C36.5108 41.5208 36.0785 41.1771 35.6254 40.8489C35.24 40.5781 34.8806 40.2864 34.5316 39.9843C34.1827 39.6823 33.8441 39.3698 33.5056 39.0416L32.8493 38.4427C32.7868 38.3906 32.6202 38.3229 32.5629 38.2708C32.5056 38.2291 32.4847 38.1771 32.4743 38.1406C32.4483 38.0468 32.4639 37.9375 32.6358 37.875C32.7764 37.8281 32.9587 37.8177 33.1514 37.8281C33.5108 37.8489 33.9222 37.9583 34.1827 38.0104C34.8702 38.1354 35.5264 38.3385 36.1618 38.6041C36.792 38.8646 37.4014 39.1875 37.9899 39.5468C38.7087 40 39.3754 40.5312 39.9795 41.125C40.5837 41.7135 41.1254 42.3646 41.6202 43.0468L42.8649 45.0208C43.8702 46.3854 44.9327 47.6614 45.8285 49.0521C46.4274 49.9843 46.9535 50.9635 47.3649 52.0416L47.7452 52.7812C47.7608 52.8281 47.7087 52.8802 47.6774 52.9271ZM47.6774 52.9583C47.6827 52.9948 47.6879 53.0312 47.667 53.0104C47.6722 52.9948 47.6774 52.9791 47.6774 52.9583ZM41.9795 44.25L41.3285 43.2604C40.8337 42.6093 40.2816 41.9948 39.6827 41.4323C39.0837 40.875 38.4431 40.3646 37.7452 39.9323C37.1827 39.5833 36.5941 39.2708 35.9899 39.0156C35.3806 38.7604 34.7556 38.5625 34.1045 38.4323C33.8858 38.3906 33.5577 38.3073 33.2556 38.2656C33.2295 38.2604 33.2087 38.2604 33.1931 38.2552L33.7452 38.7968C34.0785 39.1198 34.4118 39.4323 34.7556 39.7291C35.0941 40.026 35.4483 40.3073 35.8233 40.5781C36.2764 40.901 36.7035 41.2448 37.1566 41.5625C37.4483 41.7656 37.7556 41.9635 38.0785 42.1302C39.1514 42.6875 40.2087 43.1093 41.1722 43.6979C41.4483 43.8646 41.7191 44.0468 41.9795 44.25ZM47.4327 52.8698C47.4639 52.8281 47.4847 52.7916 47.4483 52.7708C47.417 52.75 47.4222 52.8333 47.4327 52.8698Z" fill="#010101"></path><path fill-rule="evenodd" clip-rule="evenodd" d="M47.3909 51.9688C47.4221 52.0052 47.4482 52.0469 47.4742 52.0886C47.5211 52.1615 47.495 52.2604 47.4221 52.3021C47.3492 52.349 47.2502 52.3281 47.2086 52.2552C47.1357 52.1511 47.0315 52.0781 46.9221 52.0052C46.7294 51.8854 46.5107 51.7865 46.3336 51.6771C46.1669 51.5677 45.9898 51.4896 45.8127 51.4219C45.5315 51.3125 45.2398 51.2396 44.9429 51.1563L42.2659 50.4271C42.0367 50.3594 41.8127 50.2656 41.5992 50.1615C41.3857 50.0521 41.1825 49.9323 40.9898 49.7969C40.969 49.7813 40.7034 49.5886 40.6409 49.4896C40.5679 49.3906 40.5992 49.3021 40.6357 49.25C40.6773 49.1979 40.7346 49.1511 40.8127 49.125C40.9169 49.0834 41.0575 49.0677 41.1304 49.0573C41.3023 49.0417 41.4846 49.0365 41.6669 49.0417C41.9325 49.0521 42.1982 49.0834 42.4429 49.1146C43.1877 49.1927 43.8804 49.3542 44.5367 49.6146C45.1877 49.875 45.8023 50.2396 46.3961 50.6979C46.5784 50.849 46.9846 51.1354 47.2086 51.4323C47.3388 51.6094 47.4117 51.7917 47.3909 51.9584C47.3909 51.9636 47.3909 51.9688 47.3909 51.9688ZM46.9586 51.6354C46.9325 51.599 46.9013 51.5625 46.8648 51.5261C46.6409 51.2969 46.3336 51.0938 46.1773 50.974C45.6096 50.5365 45.0211 50.1979 44.4013 49.9479C43.7763 49.6875 43.1148 49.5209 42.4065 49.4323C42.1721 49.4115 41.9117 49.3854 41.6565 49.3802C41.4898 49.3802 41.3284 49.3854 41.1721 49.4063L41.1096 49.4219C41.1513 49.4688 41.1877 49.5156 41.1929 49.5209C41.3648 49.6511 41.5523 49.7656 41.7502 49.8646C41.9482 49.9688 42.1513 50.0469 42.3596 50.1094L45.0315 50.8334C45.3388 50.9167 45.6409 50.9948 45.9325 51.1042C46.1357 51.1823 46.3284 51.2709 46.5159 51.3906C46.6513 51.474 46.8127 51.5469 46.9586 51.6354Z" fill="#010101"></path><mask id="mask2_4227_1053" style="mask-type:luminance" maskUnits="userSpaceOnUse" x="0" y="24" width="49" height="51"><path d="M0 24.1146H48.8333V74.7812H0V24.1146Z" fill="white"></path></mask><g mask="url(#mask2_4227_1053)"><path fill-rule="evenodd" clip-rule="evenodd" d="M14.3698 33.9531C14.0261 33.6718 13.6667 33.4062 13.3073 33.1458C12.4948 32.5729 11.6407 32.052 10.7344 31.6354C9.40108 31.0208 8.03129 30.6354 6.71879 30.0625C6.15108 29.8125 5.58858 29.5312 5.04691 29.1875C4.34379 28.7343 3.65108 28.302 2.9792 27.8281C2.52608 27.5156 2.08858 27.1822 1.65629 26.8177L0.67712 25.9895C0.583371 25.9062 0.359412 25.7968 0.234412 25.7083C0.114621 25.6302 0.0521186 25.5364 0.0312866 25.4843C0.00524395 25.3906 0.0208699 25.3125 0.0625366 25.2395C0.0937859 25.1927 0.151077 25.125 0.281287 25.0989C0.927119 24.9687 1.68233 25.0468 2.44795 25.2395C3.52087 25.5052 4.6042 25.9843 5.40108 26.3333C7.11983 27.1093 8.71358 28.1979 10.2188 29.4323C12.4323 31.2448 14.4532 33.3697 16.4115 35.276C17.3125 36.1614 18.2448 37.0208 19.198 37.8593C21.4271 39.8229 23.75 41.6927 25.9063 43.7239C27.2188 44.9583 28.4688 46.2708 29.6719 47.625C31.4688 49.6458 33.1823 51.7552 34.9167 53.802C36.4792 55.6875 37.9896 57.5781 39.4427 59.4948C40.9219 61.4375 42.3334 63.4062 43.6146 65.4583C45.1459 67.9166 46.5052 70.4843 47.5886 73.2343C47.698 73.5052 47.8646 73.7604 47.9011 74.052C47.9063 74.0885 47.8959 74.1145 47.8907 74.1562C47.9167 74.2343 47.875 74.3229 47.7969 74.3489C47.7188 74.3802 47.6355 74.3385 47.6042 74.2604C47.5782 74.2448 47.5625 74.2395 47.5417 74.2187C47.5313 74.2031 47.5261 74.1823 47.5157 74.1666C47.375 73.8333 47.2605 73.4895 47.125 73.1562C45.7657 69.7552 44.0052 66.6198 41.9844 63.6302C41.0834 62.302 40.1407 60.9948 39.1511 59.7187C37.6771 57.8229 36.1042 55.9843 34.5105 54.1406C32.7813 52.0937 31.073 49.9895 29.2865 47.9635C28.099 46.6145 26.875 45.302 25.5782 44.0677C23.125 41.7447 20.474 39.5989 17.9532 37.3437C17.3177 36.776 16.6875 36.2031 16.073 35.6198C15.5105 35.0781 14.948 34.5156 14.3698 33.9531ZM12.6511 32.2812C11.7605 31.4322 10.8438 30.5989 9.89066 29.8281C8.4167 28.6354 6.8542 27.5885 5.17191 26.8437C4.40108 26.5 3.3542 26.026 2.31774 25.7656C1.8542 25.6458 1.39587 25.5677 0.973995 25.5625C0.98962 25.5781 1.00524 25.5885 1.01566 25.5989L1.9792 26.4427C2.39587 26.802 2.82295 27.1302 3.25524 27.4427C3.9167 27.9218 4.599 28.3593 5.2917 28.8177C5.81254 29.1562 6.34379 29.4322 6.89066 29.677C8.20316 30.2604 9.56775 30.6666 10.8959 31.2968C11.5052 31.5833 12.0886 31.9166 12.6511 32.2812Z" fill="#010101"></path></g><path fill-rule="evenodd" clip-rule="evenodd" d="M19.5107 38.5312C19.4013 38.5729 19.2086 38.4375 19.0211 38.2864C19.0107 38.276 19.0003 38.2708 18.9898 38.2552C18.9273 38.2083 18.8701 38.1562 18.818 38.1093C18.6096 37.9583 18.3336 37.8593 18.0419 37.7812C17.4482 37.625 16.7763 37.5573 16.3336 37.4635C15.443 37.2708 14.5419 37.1666 13.6409 37.1302C12.7398 37.0937 11.8284 37.1302 10.9221 37.2187C10.0419 37.3073 9.19818 37.4635 8.32838 37.5521C7.95859 37.5885 7.58359 37.6146 7.19818 37.6146C6.85963 37.6198 6.5263 37.6093 6.19297 37.5989C5.41693 37.5677 4.64609 37.5208 3.87005 37.4948L2.64088 37.4531C2.63567 37.4531 2.40651 37.4375 2.33359 37.4062C2.18776 37.3489 2.18776 37.2291 2.20859 37.151C2.23463 37.0677 2.32318 36.9687 2.4638 36.8854C2.63047 36.7916 2.87526 36.7135 2.95338 36.6771C3.21901 36.5521 3.48984 36.4271 3.76068 36.3073C4.16693 36.1354 4.57838 35.9687 4.98984 35.8073C5.5263 35.5937 6.12526 35.3698 6.72422 35.1979C7.13567 35.0781 7.54713 34.9843 7.93776 34.9375C8.92213 34.8073 9.94818 34.8333 10.969 34.9635C12.4846 35.1562 13.9898 35.5781 15.3492 36.0573C15.9378 36.2656 16.5315 36.4896 17.1096 36.7448C17.6878 37.0052 18.2555 37.2968 18.7867 37.6354C18.9273 37.7239 19.4378 38.0156 19.6721 38.2239C19.8648 38.401 19.8701 38.5729 19.7607 38.6666C19.6982 38.7187 19.5992 38.7135 19.5471 38.6458C19.5159 38.6146 19.5055 38.5729 19.5107 38.5312ZM17.4169 37.2916C17.3753 37.2708 17.3388 37.25 17.2971 37.2343C16.6201 36.9218 15.9169 36.6614 15.219 36.4218C14.1044 36.0364 12.8857 35.6875 11.6461 35.4791C10.4221 35.2708 9.17734 35.1979 7.99505 35.3593C7.62526 35.4062 7.23463 35.5 6.84922 35.6146C6.26067 35.7864 5.67734 36.0052 5.15651 36.2135L3.13568 37.0729C3.10963 37.0833 3.04713 37.0937 2.97422 37.1093L3.88568 37.1718C4.54713 37.2031 5.20859 37.25 5.87526 37.276C6.31276 37.2916 6.75547 37.3021 7.19297 37.2916C7.56797 37.2864 7.93255 37.2604 8.29193 37.2187C9.16172 37.1198 10.0003 36.9583 10.8857 36.8646C11.8076 36.7656 12.7346 36.7291 13.6565 36.7656C14.5784 36.8021 15.5003 36.9166 16.4117 37.1146C16.6826 37.1771 17.0419 37.2239 17.4169 37.2916ZM2.56797 37.2448C2.55755 37.2604 2.55755 37.2812 2.57318 37.3021C2.57838 37.3073 2.57318 37.2812 2.57838 37.276C2.57838 37.2656 2.57838 37.2552 2.56797 37.2448Z" fill="#010101"></path><path fill-rule="evenodd" clip-rule="evenodd" d="M13.651 12.4583C13.6458 12.4583 13.6406 12.4583 13.6354 12.4583C13.6198 12.4583 13.6198 12.4896 13.625 12.526C13.6406 12.5156 13.651 12.5 13.6563 12.4896C13.7292 12.7917 13.8177 13.0937 13.9271 13.3906C14.2083 14.1667 14.5729 14.9219 14.8229 15.7031C15.0104 16.276 15.1458 16.8646 15.2604 17.4531C15.4271 18.3333 15.5365 19.2292 15.651 20.1146C15.9167 22.2448 15.7396 24.4062 15.9115 26.5208C15.9635 27.1927 16.0521 27.8646 16.2083 28.526C16.3177 28.7656 16.4271 29.0052 16.5469 29.2396C17.5469 31.2396 18.625 33.1823 19.7813 35.0729C20.9375 36.9635 22.1719 38.8073 23.526 40.5885L25.6146 43.526C25.7187 43.6719 25.8281 43.8177 25.9479 43.9531C26.026 44.0417 26.1042 44.125 26.1927 44.2031C26.2031 44.2083 26.3802 44.2969 26.4479 44.3385C26.5417 44.401 26.5469 44.4896 26.5469 44.5C26.5417 44.5833 26.4688 44.6458 26.3854 44.6406C26.349 44.6354 26.3125 44.6198 26.2917 44.5937C26.2917 44.5937 26 44.4375 25.9896 44.4323C25.8906 44.349 25.8021 44.2552 25.7135 44.1615C25.5885 44.0208 25.4687 43.8698 25.3542 43.7187L23.2448 40.8021C21.8698 39.0156 20.6042 37.1771 19.4479 35.2708C18.2865 33.3698 17.2396 31.4062 16.25 29.3854C16.25 29.3802 16.25 29.3802 16.25 29.3802C16.1771 29.3854 16.1146 29.3385 16.0938 29.2708C16.0313 29.0885 15.9792 28.901 15.9271 28.7135C15.2448 27.2187 14.6771 25.5937 14.2135 23.9427C13.6823 22.0417 13.2865 20.1042 13.0365 18.2604C12.9687 17.7292 12.9375 17.2187 12.9375 16.7083C12.9375 15.9479 12.9948 15.1927 13.0469 14.401L13.1667 13.0989L13.2188 12.6406C13.224 12.5833 13.224 12.4531 13.2292 12.4167C13.2813 12.1771 13.5 12.2187 13.5469 12.2604C13.5625 12.2708 13.625 12.2969 13.6354 12.3958C13.6406 12.4167 13.6458 12.4375 13.651 12.4583ZM13.651 12.4583C13.6615 12.4635 13.6615 12.4739 13.6563 12.4896C13.651 12.4792 13.651 12.4687 13.651 12.4583ZM15.6354 27.1667C15.6042 26.9583 15.5833 26.7552 15.5625 26.5469C15.3698 24.4427 15.5469 22.2864 15.2708 20.1614C15.1615 19.2812 15.0521 18.3958 14.8906 17.5208C14.7813 16.9427 14.651 16.3698 14.474 15.8125C14.2292 15.0364 13.875 14.2812 13.5833 13.5156C13.5833 13.5104 13.5781 13.5 13.5781 13.4948L13.5 14.4323C13.4531 15.2083 13.4063 15.9531 13.4063 16.7031C13.4063 17.1979 13.4271 17.6875 13.4896 18.2031C13.6979 20.0312 14.0417 21.9635 14.5469 23.8542C14.8542 24.9844 15.2135 26.099 15.6354 27.1667Z" fill="#010101"></path><path fill-rule="evenodd" clip-rule="evenodd" d="M32.9951 51.9323C33.0107 51.9427 33.0264 51.9531 33.042 51.9635C33.266 52.1041 33.4951 52.2916 33.7035 52.5C33.9014 52.7031 34.0889 52.9218 34.2503 53.125C34.2764 53.1562 34.2868 53.1927 34.2868 53.2291C34.3076 53.2552 34.3337 53.2812 34.3597 53.3125C34.6826 53.6614 34.9899 54.0208 35.2868 54.3906C35.3337 54.4479 35.6722 54.776 35.7868 55.0156C35.8545 55.151 35.8545 55.2708 35.8024 55.3489C35.7555 55.4166 35.6618 55.4323 35.5941 55.3906C35.5316 55.3489 35.5107 55.2708 35.5368 55.2031C35.3337 55.2448 35.0889 54.6406 35.042 54.5885C34.7451 54.2291 34.4378 53.875 34.1149 53.5312C33.7972 53.1875 33.4639 52.8593 33.1253 52.5364C33.0107 52.4271 32.8962 52.3229 32.7764 52.2187C32.141 51.8385 31.4326 51.625 30.7035 51.4896C29.5316 51.276 28.2972 51.2604 27.1774 51.1302C26.5732 51.0573 25.9691 50.9531 25.3597 50.8385C24.4587 50.6562 23.5628 50.4479 22.6774 50.2552C22.016 50.1093 21.3493 49.9739 20.693 49.7916C20.2503 49.6666 19.8128 49.5208 19.391 49.3333C19.3024 49.2968 18.8597 49.1198 18.6357 48.9531C18.4951 48.8489 18.4378 48.7239 18.4326 48.6302C18.4326 48.5989 18.4535 48.4635 18.5993 48.4166C18.6514 48.401 18.7868 48.3802 18.7972 48.3802L19.5368 48.1823C20.0889 48.0416 20.6462 47.9375 21.2035 47.8906C21.766 47.8437 22.3285 47.8541 22.9014 47.9479C23.8024 48.0937 24.7399 48.2031 25.6514 48.3698C26.0472 48.4427 26.443 48.526 26.8285 48.6354C28.0264 48.9635 29.2191 49.4323 30.3337 50.0416C31.292 50.5729 32.193 51.2135 32.9951 51.9323ZM31.667 51.3437C31.1774 51 30.667 50.6823 30.1357 50.3906C29.0524 49.7916 27.8962 49.3073 26.7295 48.9635C26.2295 48.8229 25.7191 48.7135 25.2035 48.6198C24.417 48.4843 23.6201 48.3906 22.8493 48.2656C22.3024 48.1823 21.766 48.1823 21.2347 48.2396C20.6982 48.2968 20.1722 48.4166 19.641 48.5677L19.0003 48.7552C19.2035 48.8489 19.5107 48.9271 19.5628 48.9531C19.9639 49.1302 20.3805 49.276 20.8076 49.401C21.4482 49.5885 22.1097 49.7291 22.7607 49.875C23.641 50.0677 24.5368 50.276 25.4378 50.4531C26.0316 50.5677 26.6305 50.6718 27.2243 50.7396C28.3493 50.875 29.5941 50.901 30.7712 51.125C31.0732 51.1823 31.3753 51.2552 31.667 51.3437ZM18.8076 48.7916C18.766 48.7916 18.7191 48.8021 18.7295 48.8229C18.7503 48.8854 18.7816 48.8489 18.8076 48.7916ZM18.8545 48.6666C18.8597 48.6458 18.8597 48.6354 18.8597 48.6302C18.8597 48.6146 18.8649 48.5625 18.8493 48.5781C18.818 48.6041 18.8232 48.6354 18.8545 48.6666Z" fill="#010101"></path><path fill-rule="evenodd" clip-rule="evenodd" d="M40.198 60.2448L40.6667 60.9323L40.9011 61.25C40.9011 61.2552 40.9948 61.401 41.0052 61.4375C41.0313 61.5 41.0157 61.5416 41.0052 61.5625C40.9792 61.6146 40.9375 61.6458 40.875 61.651C40.8594 61.651 40.8073 61.6562 40.7552 61.6041C40.7396 61.5885 40.724 61.5677 40.7136 61.5416C40.6875 61.526 40.6511 61.4271 40.6511 61.4271L40.4219 61.1094L39.8021 60.2291L39.1667 59.1146C39.1355 59.0521 39.099 58.9896 39.0625 58.9271L38.3334 57.6406C37.5625 56.3437 36.7969 55.0104 36.2084 53.6094C35.8177 52.6666 35.5052 51.6927 35.3177 50.6823C35.2709 50.3906 35.2448 50.0989 35.2292 49.8073C35.2032 49.1458 35.2344 48.4896 35.1615 47.8333C35.099 47.3437 35.0313 46.8489 35.0052 46.3541C34.9844 46.0156 34.9844 45.6771 35.0157 45.3385C35.0261 45.2291 35.0625 44.9479 35.1511 44.7552C35.2136 44.6198 35.3021 44.526 35.4063 44.4896C35.4115 44.4896 35.5938 44.5 35.6771 44.6875C35.7865 44.9323 36.0521 45.5416 36.0625 45.5729C36.3073 46.1354 36.573 46.6979 36.7969 47.276C36.948 47.6666 37.0782 48.0677 37.1719 48.4739C37.25 48.8021 37.3073 49.1302 37.349 49.4583C37.448 50.2135 37.4792 50.9687 37.5782 51.7344C37.6719 52.5364 37.8021 53.3698 37.9532 54.1927C38.1042 55.0208 38.2865 55.8437 38.4948 56.6198C38.625 57.125 38.8073 57.6094 39.0261 58.0781C39.3646 58.7969 39.7709 59.4844 40.1771 60.1562C40.1927 60.1823 40.198 60.2135 40.198 60.2448ZM37.9948 56.3125C37.823 55.651 37.6719 54.9635 37.5365 54.2708C37.3802 53.4375 37.2448 52.5989 37.1459 51.7916C37.0521 51.0208 37.0157 50.2708 36.9271 49.5104C36.8855 49.1979 36.8386 48.8802 36.7657 48.5625C36.6823 48.1771 36.5625 47.7916 36.4219 47.4166C36.2084 46.8437 35.9532 46.2812 35.7188 45.7239C35.7084 45.6979 35.5521 45.3281 35.4323 45.0469C35.3959 45.1771 35.3802 45.3125 35.375 45.375C35.3438 45.6927 35.3438 46.0104 35.3646 46.3333C35.4011 46.8177 35.474 47.3073 35.5417 47.7864C35.6302 48.4479 35.6094 49.1198 35.6563 49.7864C35.6719 50.0573 35.698 50.3333 35.75 50.6041C35.9271 51.5885 36.2292 52.5312 36.6042 53.4479C37.0052 54.4323 37.4844 55.3802 37.9948 56.3125ZM40.8021 61.3541C40.8542 61.3333 40.9167 61.3437 40.9584 61.3854C40.8959 61.3281 40.8438 61.3333 40.8021 61.3541Z" fill="#010101"></path><path fill-rule="evenodd" clip-rule="evenodd" d="M94.4066 42.9531C93.9326 42.8958 93.4482 42.8646 92.9482 42.8646C91.0524 42.8489 89.0472 43.151 87.1878 43.0677C84.2972 42.9323 81.3649 42.6823 78.443 42.5573C77.1878 42.5052 75.9274 42.4739 74.6826 42.4896C65.5524 42.5885 56.3701 43.0417 47.2243 43.1042C45.2451 43.1198 43.266 43.1146 41.292 43.0833C41.3389 43.0989 41.3805 43.1198 41.4222 43.1458C41.5576 43.2187 41.6149 43.3333 41.6149 43.4479C43.4847 43.4792 45.3545 43.4844 47.2243 43.4687C56.3701 43.4167 65.5576 42.9739 74.6878 42.8854C75.9274 42.8698 77.1774 42.901 78.4274 42.9479C81.3441 43.0729 84.2816 43.3177 87.1722 43.4479C88.8024 43.5208 90.5472 43.3073 92.2347 43.25C92.9639 43.2187 93.6826 43.2187 94.3753 43.2864C94.4639 43.2969 94.5472 43.2292 94.5576 43.1354C94.568 43.0469 94.5003 42.9635 94.4066 42.9531Z" fill="#010101"></path><path fill-rule="evenodd" clip-rule="evenodd" d="M39.8649 43.1042C39.8545 43.0885 39.844 43.0677 39.8336 43.0521C38.3753 43.0208 36.917 42.9688 35.4638 42.9063C31.6774 42.724 28.0003 42.5 24.3024 42.4688C21.8388 42.4531 19.3649 42.5208 16.8492 42.7448C15.9795 42.8229 15.1045 42.8854 14.2347 42.9323C12.9274 43.0052 11.6149 43.0521 10.3024 43.0885C10.094 43.0938 9.09404 43.25 8.28675 43.2969C7.98466 43.3177 7.70862 43.3229 7.52112 43.2917C7.48466 43.2865 7.45341 43.276 7.42737 43.2708C7.43258 43.2656 7.43258 43.2656 7.43779 43.2604C7.49508 43.2031 7.50029 43.1094 7.443 43.0521C7.3857 42.9896 7.28675 42.9896 7.22945 43.0469C7.03675 43.224 7.068 43.3646 7.12529 43.474C7.15133 43.5313 7.1982 43.5833 7.28154 43.625C7.35445 43.6667 7.47425 43.6771 7.60966 43.6875C8.3857 43.7448 10.0367 43.4844 10.318 43.474C11.6305 43.4323 12.943 43.3906 14.2555 43.3177C15.1305 43.2708 16.0055 43.2083 16.8805 43.1302C19.3857 42.9063 21.8492 42.8385 24.2972 42.8542C27.9899 42.8802 31.667 43.099 35.4482 43.2656C37.0315 43.3385 38.6201 43.3906 40.2086 43.4271C40.0732 43.3385 39.9534 43.2396 39.8649 43.1042Z" fill="#010101"></path><path fill-rule="evenodd" clip-rule="evenodd" d="M94.3906 42.9218C94.3906 42.927 94.3906 42.927 94.3906 42.927C94.3906 42.927 94.3802 42.927 94.3698 42.9218C94.3438 42.9062 94.2969 42.8958 94.2448 42.8593C94.1979 42.8281 94.1458 42.776 94.0886 42.7239C93.4011 42.125 91.7292 40.677 91.4792 40.3437C90.6771 39.2864 88.6615 36.7343 86.7552 34.5416C85.5781 33.1875 84.4219 31.9843 83.6667 31.3281C83.5261 31.2083 83.4115 31.0989 83.3021 31.0208C83.2136 30.9687 83.1875 30.8489 83.2448 30.7656C83.3021 30.6822 83.4167 30.6562 83.5 30.7135C83.6042 30.7656 83.7188 30.8333 83.8333 30.9218C84.4636 31.3854 85.3073 32.2864 86.2448 33.3333C88.3646 35.6927 90.8854 38.8802 91.8073 40.0989C92.0521 40.4218 93.6979 41.8229 94.3594 42.4218C94.4271 42.4843 94.4896 42.5364 94.5261 42.5833C94.6302 42.7135 94.6563 42.7968 94.6563 42.8072C94.6719 42.8906 94.6198 42.9687 94.5365 42.9791C94.4792 42.9895 94.4219 42.9687 94.3906 42.9218Z" fill="#010101"></path><mask id="mask3_4227_1053" style="mask-type:luminance" maskUnits="userSpaceOnUse" x="51" y="0" width="26" height="23"><path d="M51.5 0H76.8333V22.7813H51.5V0Z" fill="white"></path></mask><g mask="url(#mask3_4227_1053)"><path fill-rule="evenodd" clip-rule="evenodd" d="M76.0367 21.6667C76.021 21.6719 76.0054 21.6771 75.9846 21.6823C76.0106 21.6771 76.0314 21.6823 76.0523 21.6927C76.0575 21.6927 76.0575 21.6927 76.0575 21.6927C76.0575 21.6927 76.0575 21.6927 76.0627 21.6927C76.0835 21.7031 76.1044 21.7188 76.12 21.7396C76.1721 21.8021 76.1564 21.8958 76.0939 21.9479C76.0679 21.974 75.9533 22.0052 75.8283 21.9115C75.6669 21.7917 75.3387 21.4063 75.3075 21.375C75.1044 21.1406 74.9169 20.8802 74.7398 20.6094C74.4794 20.2188 74.2398 19.8073 73.9898 19.4219C73.7867 19.1094 73.5575 18.8125 73.3231 18.5313C72.7554 17.8542 72.1304 17.2344 71.5731 16.5313C71.2033 16.0573 70.9169 15.5625 70.5627 15.0938C70.4221 14.9063 70.2658 14.724 70.0939 14.5521C69.7919 14.2552 69.4794 13.9792 69.1617 13.7135C68.4064 13.0833 67.6044 12.5208 66.8387 11.875C66.5523 11.6354 66.2814 11.3698 66.021 11.0938C65.4377 10.474 64.896 9.79688 64.271 9.21876C64.0262 8.9948 63.7762 8.78126 63.5262 8.56772C62.5054 7.71355 61.4273 6.92709 60.4429 6.02605C58.9794 4.69272 57.5731 3.16667 55.9481 2.00001C54.8856 1.23959 53.7242 0.635424 52.3752 0.369799C52.2762 0.348965 52.2085 0.255216 52.2294 0.161465C52.245 0.0625079 52.3439 6.52802e-06 52.4377 0.0156319C53.8544 0.265632 55.0835 0.86459 56.2033 1.64584C57.8544 2.8073 59.2606 4.36459 60.7346 5.70834C61.7137 6.60418 62.7867 7.39063 63.8023 8.2448C64.0575 8.45834 64.3127 8.6823 64.5575 8.90626C65.1929 9.4948 65.7398 10.1771 66.3335 10.8073C66.5783 11.0677 66.8387 11.3229 67.1148 11.5573C67.8752 12.1979 68.6721 12.7656 69.4325 13.3958C69.7554 13.6667 70.0783 13.9531 70.3856 14.2604C70.5731 14.4479 70.7398 14.6458 70.8908 14.849C71.2398 15.3177 71.5262 15.8125 71.8908 16.2813C72.4429 16.9896 73.0627 17.6042 73.62 18.2865C73.8648 18.5833 74.0992 18.8854 74.3127 19.2188C74.5992 19.6667 74.87 20.151 75.1721 20.6042C75.2971 20.7969 75.4325 20.9844 75.5731 21.1563C75.5992 21.1875 75.9064 21.5365 76.0367 21.6667ZM76.0367 21.6667C76.0679 21.6615 76.0835 21.6667 76.0627 21.6927C76.0575 21.6927 76.0575 21.6927 76.0523 21.6927C76.0523 21.6823 76.0471 21.6771 76.0419 21.6667C76.0419 21.6667 76.0419 21.6667 76.0367 21.6667Z" fill="#010101"></path></g><mask id="mask4_4227_1053" style="mask-type:luminance" maskUnits="userSpaceOnUse" x="36" y="0" width="17" height="15"><path d="M36.8335 0H52.8335V14.7813H36.8335V0Z" fill="white"></path></mask><g mask="url(#mask4_4227_1053)"><path fill-rule="evenodd" clip-rule="evenodd" d="M52.396 0.0416654C52.4117 0.0312494 52.4325 0.0260404 52.4533 0.0260404C52.5315 0.015623 52.6096 0.0781234 52.62 0.156249C52.6252 0.203123 52.5992 0.30729 52.4585 0.33854C52.3648 0.359374 52.1148 0.364582 52.0888 0.36979C51.9585 0.390624 51.8335 0.447915 51.7138 0.510415C51.5835 0.583331 51.4585 0.661457 51.3492 0.74479C51.021 0.984374 50.7033 1.25521 50.396 1.53646C49.9325 1.96875 49.495 2.4375 49.0888 2.88542C48.0888 4 47.0575 5.09896 45.9794 6.15625C44.9013 7.21354 43.7815 8.22917 42.6252 9.1875C41.6565 9.98958 40.5419 10.7396 39.5471 11.5885C38.8908 12.151 38.2867 12.7552 37.8179 13.4583C37.771 13.5365 37.6669 13.5573 37.594 13.5052C37.5158 13.4583 37.495 13.3594 37.5419 13.2812C38.0158 12.5417 38.6252 11.8958 39.2971 11.3073C40.2815 10.4427 41.4013 9.6875 42.3648 8.88021C43.5106 7.92708 44.6148 6.91146 45.6877 5.86458C46.7658 4.81771 47.8075 3.73958 48.8127 2.64062C49.2294 2.1875 49.6773 1.71354 50.1513 1.28125C50.469 0.984374 50.7971 0.708331 51.1356 0.46354C51.2867 0.354166 51.4585 0.239582 51.6356 0.161457C51.7658 0.104166 51.896 0.0625 52.0315 0.0416654C52.0575 0.0416654 52.344 0.0416654 52.396 0.0416654Z" fill="#010101"></path></g><path fill-rule="evenodd" clip-rule="evenodd" d="M15.8545 34.0677C15.818 33.9844 16.0368 33.8333 16.0733 33.7812C16.1983 33.6146 16.3337 33.4531 16.4743 33.3021C16.6826 33.0729 16.9014 32.8594 17.1201 32.6354C17.9326 31.8177 18.7608 31.0052 19.5993 30.2083C20.4326 29.4115 21.2868 28.6302 22.1514 27.8542L23.8962 26.1927C24.6826 25.4687 25.3701 24.651 26.1149 23.8906C26.443 23.5625 26.7764 23.2396 27.1358 22.9427L28.6566 21.7448C28.7712 21.6615 28.9743 21.6042 29.0733 21.5521C29.0212 21.5104 29.0003 21.4323 29.0316 21.3698C29.068 21.2969 29.1618 21.2656 29.2347 21.3021C29.4118 21.3698 29.4378 21.4844 29.4378 21.5573C29.4378 21.6198 29.391 21.7031 29.292 21.776C29.1983 21.8437 29.0264 21.9219 28.891 22.0365L27.3858 23.2396C27.0368 23.5312 26.7139 23.8437 26.3962 24.1667C25.6514 24.9323 24.9587 25.7552 24.1722 26.4844L22.4222 28.151C21.5628 28.9271 20.7191 29.7135 19.8805 30.5052C19.042 31.2917 18.2087 32.0937 17.3858 32.901C17.167 33.1146 16.9483 33.3281 16.7451 33.5469C16.6097 33.6875 16.4795 33.8385 16.3597 33.9948C16.3128 34.0521 16.1983 34.2448 16.0941 34.3333C16.0212 34.401 15.9378 34.4219 15.8753 34.4167C15.7764 34.4062 15.7035 34.3177 15.7139 34.224C15.7243 34.1458 15.7816 34.0885 15.8545 34.0677ZM29.1097 21.526C29.1253 21.5104 29.1305 21.4948 29.1201 21.474C29.1097 21.4583 29.1149 21.5 29.1097 21.5104C29.1097 21.5156 29.1097 21.5208 29.1097 21.526Z" fill="#010101"></path><path fill-rule="evenodd" clip-rule="evenodd" d="M16.0316 34.0573C16.0211 34.0416 16.0107 34.0208 16.0107 33.9948C16.0003 33.9114 16.0576 33.8385 16.1409 33.8281C16.2138 33.8125 16.2607 33.8437 16.292 33.8698C16.3284 33.9062 16.3701 33.9948 16.3076 34.1094C16.2295 34.2708 15.8545 34.6719 15.792 34.7448C15.6253 34.9323 15.4482 35.0989 15.2555 35.2552C15.0368 35.4323 14.8076 35.6094 14.5732 35.7708C14.5159 35.8073 14.4534 35.8385 14.3909 35.8802C14.3232 35.9375 14.2191 35.9219 14.1618 35.8541C14.1045 35.7812 14.1149 35.6823 14.1878 35.625C14.2503 35.5625 14.3076 35.5052 14.3701 35.4531C14.6201 35.2448 14.8961 35.0625 15.1461 34.8489C15.2763 34.7396 15.4013 34.625 15.5159 34.5C15.5628 34.4531 15.9326 34.2083 16.0316 34.0573ZM16.0472 34.0416C16.0628 34.0052 16.0628 33.9791 16.0368 33.9635C15.9951 33.9375 16.0211 33.9948 16.0472 34.0416Z" fill="#010101"></path><path fill-rule="evenodd" clip-rule="evenodd" d="M12.2554 37.1666C12.2502 37.1458 12.2502 37.1302 12.2502 37.1093C12.2554 37.026 12.3283 36.9635 12.4116 36.9687C12.5314 36.9583 12.5575 37.0416 12.5783 37.1093C12.5887 37.1406 12.5783 37.2083 12.521 37.2864C12.4168 37.4271 12.0002 37.7396 11.9429 37.7916C11.7502 37.9635 11.5627 38.1406 11.3804 38.3229C11.1981 38.5052 11.0262 38.6927 10.87 38.8906C10.4481 39.4114 10.0106 39.9323 9.56268 40.4427C9.11476 40.9531 8.65643 41.4531 8.18768 41.9271C7.94289 42.1771 7.58351 42.4323 7.31268 42.7396C7.17205 42.901 7.0731 43.0781 7.0106 43.2708C7.00539 43.2916 6.98976 43.3073 6.97935 43.3281C6.96893 43.4271 6.88559 43.4948 6.78664 43.4843C6.69289 43.4739 6.61997 43.3854 6.63039 43.2916C6.64601 43.0573 6.73455 42.8437 6.86997 42.6458C7.1408 42.25 7.60435 41.9427 7.89601 41.6458C8.35955 41.1771 8.81789 40.6823 9.2606 40.1771C9.7033 39.6718 10.1356 39.1562 10.5575 38.6406C10.6929 38.4739 10.8387 38.3177 10.9898 38.1614C11.2137 37.9323 11.4533 37.7187 11.6929 37.5104C11.7398 37.4791 12.146 37.2968 12.2554 37.1666ZM12.2658 37.151C12.2866 37.1198 12.2918 37.0937 12.271 37.0729C12.245 37.0468 12.2658 37.1302 12.2658 37.151Z" fill="#010101"></path><path fill-rule="evenodd" clip-rule="evenodd" d="M80.5939 31.3854C80.0939 31.5677 79.5887 31.7552 79.0939 31.9635C78.5626 32.1875 78.0418 32.4323 77.5574 32.7344L76.7449 33.2917C76.7397 33.2969 76.5626 33.5469 76.5054 33.4896C76.5001 33.4948 76.4949 33.5 76.4897 33.5052C76.4376 33.5677 76.3439 33.5781 76.2814 33.5208C76.2554 33.5052 76.1824 33.3802 76.2918 33.2708C76.3595 33.2083 76.5522 33.0573 76.5574 33.0521L77.3908 32.4635C77.8856 32.151 78.4116 31.8854 78.9585 31.651C79.7658 31.3073 80.6043 31.026 81.4168 30.724C82.7033 30.25 84.0158 29.7083 85.3543 29.276C86.2606 28.9844 87.172 28.7448 88.0991 28.6146C88.5158 28.5573 88.9533 28.5417 89.3908 28.5521C90.0314 28.5677 90.6824 28.6354 91.2918 28.6823C91.9897 28.7448 92.9741 28.9062 93.7501 29.3125C94.3074 29.6042 94.7554 30.0156 94.9429 30.5833C95.0418 30.875 94.9637 31.0677 94.8179 31.2135C94.6564 31.375 94.3595 31.4687 94.1095 31.5573C93.646 31.7187 93.1772 31.8281 92.7033 31.8958C92.2345 31.9635 91.7606 32 91.2762 32.0104C89.0522 32.0677 86.8699 31.3646 84.6564 31.151C84.1147 31.099 83.5679 31.0781 83.021 31.1094C82.5001 31.1302 82.0574 31.1094 81.6095 31.1667C81.3283 31.1979 81.047 31.2604 80.7449 31.3958C80.6929 31.4167 80.6356 31.4115 80.5939 31.3854ZM82.2554 30.776C82.4897 30.7708 82.7345 30.7656 83.0001 30.75C83.5679 30.7187 84.1304 30.7396 84.6929 30.7865C86.8908 30.9896 89.0574 31.6927 91.2658 31.6302C91.7345 31.6146 92.1981 31.5885 92.6512 31.526C93.0991 31.4635 93.547 31.3646 93.9845 31.2083C94.1824 31.1406 94.4272 31.0833 94.5574 30.9531C94.6147 30.8958 94.6304 30.8177 94.5887 30.7031C94.4272 30.2292 94.0314 29.901 93.5626 29.6615C92.8335 29.2917 91.9116 29.1354 91.2554 29.0781C90.6564 29.026 90.0158 28.9531 89.3804 28.9323C88.9585 28.9167 88.547 28.9271 88.1512 28.9792C87.2397 29.1042 86.3439 29.3281 85.4637 29.6094C84.3751 29.9531 83.3074 30.375 82.2554 30.776Z" fill="#010101"></path><path fill-rule="evenodd" clip-rule="evenodd" d="M75.3856 31.5208C75.3856 31.5208 75.3856 31.5156 75.3804 31.5156C75.3856 31.5208 75.4013 31.526 75.3961 31.526C75.3908 31.526 75.3908 31.526 75.3856 31.5208ZM75.3856 31.3854C75.3804 31.4271 75.3804 31.4739 75.3752 31.5208C75.3752 31.5208 75.3804 31.5208 75.3856 31.526C75.4169 31.5833 75.4013 31.6562 75.3544 31.6979C75.3179 32.0104 75.2763 32.3177 75.2242 32.625C75.1252 33.1927 74.9898 33.75 74.7919 34.2864C74.7086 34.5208 74.6096 34.7552 74.5002 34.9844C74.3388 35.3229 74.1565 35.651 73.969 35.9739C73.9481 36.0104 73.8544 36.3333 73.7606 36.3333C73.7606 36.3646 73.7502 36.401 73.7294 36.4271C73.6825 36.4948 73.5836 36.5104 73.5158 36.4583C73.469 36.4271 73.4273 36.3542 73.4533 36.25C73.4846 36.1302 73.6825 35.8698 73.7086 35.8229C73.8596 35.5573 74.0106 35.2916 74.1461 35.0156C74.2815 34.7448 74.4065 34.4687 74.5106 34.1823C74.6981 33.6614 74.8231 33.125 74.9117 32.5729C75.0523 31.7448 75.1044 30.901 75.1721 30.0729C75.3179 28.3854 75.1773 26.5416 75.3544 24.7916C75.4377 24.0208 75.5783 23.2656 75.8388 22.5469C75.9377 22.2708 76.0679 22.0208 76.219 21.776C76.4325 21.4323 76.6877 21.1041 76.9065 20.75C77.2085 20.2708 77.62 19.4896 78.1617 18.9844C78.5679 18.6094 79.0471 18.3854 79.6044 18.5052C79.8127 18.5469 79.9481 18.6823 80.0315 18.8594C80.1304 19.0729 80.1461 19.3541 80.1408 19.5521C80.1356 19.9948 80.0679 20.4427 79.9481 20.875C79.8335 21.3073 79.6721 21.7239 79.4794 22.1146C79.1825 22.7239 78.7606 23.276 78.4065 23.8594C78.2606 24.0989 78.1252 24.3437 78.0158 24.6041C77.9429 24.776 77.9013 24.9479 77.87 25.125C77.7919 25.5729 77.7919 26.0312 77.6669 26.4739C77.6096 26.6875 77.5367 26.8802 77.4481 27.0677C77.2502 27.5 76.995 27.8854 76.7815 28.3229L76.4377 29.3594L75.5731 31.0625C75.5523 31.1146 75.4429 31.2708 75.3856 31.3854ZM75.469 30.5416L76.1356 29.2135L76.4742 28.1823C76.6877 27.7396 76.9377 27.3541 77.1356 26.9271C77.2138 26.7552 77.2867 26.5781 77.3388 26.3854C77.4586 25.9531 77.4533 25.5052 77.5315 25.0677C77.5627 24.8646 77.6148 24.6666 77.6929 24.4739C77.8075 24.1979 77.9533 23.9375 78.1096 23.6823C78.4533 23.1041 78.87 22.5625 79.1669 21.9635C79.3492 21.5937 79.5002 21.1979 79.6148 20.7864C79.7242 20.3802 79.7919 19.9635 79.7971 19.5469C79.8023 19.4114 79.7971 19.2344 79.745 19.0833C79.7085 18.9687 79.6513 18.8646 79.5263 18.8385C79.0888 18.7396 78.7138 18.9323 78.3908 19.2344C77.87 19.7135 77.4794 20.4687 77.1877 20.9219C76.9638 21.276 76.7138 21.6041 76.495 21.9479C76.3544 22.1719 76.2294 22.401 76.1408 22.6562C75.8908 23.3489 75.7502 24.0781 75.6721 24.8281C75.495 26.5729 75.6408 28.4114 75.5054 30.0989C75.4898 30.2448 75.4794 30.3906 75.469 30.5416Z" fill="#010101"></path></svg> 